<svg xmlns="http://www.w3.org/2000/svg" viewBox="0 0 1024 1024" width="60" height="60">
  <path fill="#FFF" d="M224 0h576q224 0 224 224v576q0 224-224 224H224Q0 1024 0 800V224Q0 0 224 0Z"/>
  <path fill="#D8B350" d="M832 512v280c0 22.092-17.908 40-40 40H512V620h92a16 16 0 0 0 15.98-15.2l.02-.8v-92h212zM512 192v212h-92a16 16 0 0 0-15.98 15.2l-.02.8v92H192V232c0-22.092 17.908-40 40-40h280z"/>
  <path fill="#E50113" d="M404 512v92a16 16 0 0 0 15.2 15.98l.8.02h92v212H232c-21.72 0-39.392-17.308-39.984-38.88L192 792V512h212zm388-320c21.72 0 39.392 17.308 39.984 38.88L832 232v280H620v-92a16 16 0 0 0-15.2-15.98l-.8-.02h-92V192h280z"/>
</svg>