<svg xmlns="http://www.w3.org/2000/svg" viewBox="0 0 1024 1024" width="60" height="60">
  <path fill="#FFF" d="M224 0h576q224 0 224 224v576q0 224-224 224H224Q0 1024 0 800V224Q0 0 224 0Z"/>
  <path fill="#E74225" d="M172 421.96h51.068v51.068H172z"/>
  <path fill="#E096A5" d="M172 486.468h51.068v51.064H172z"/>
  <path fill="#E74225" d="M172 548.284h51.068v51.068H172z"/>
  <path fill="#E73E23" d="M236.504 421.96h51.068v51.068h-51.068z"/>
  <path fill="#E73C22" d="M236.504 486.468h51.068v51.064h-51.068z"/>
  <path fill="#E73E23" d="M236.504 548.284h51.068v51.068h-51.068z"/>
  <path fill="#F9C053" d="M298.324 421.96h51.068v51.068H298.32z"/>
  <path fill="#E73E23" d="M298.324 486.468h51.068v51.064H298.32z"/>
  <path fill="#B50080" d="M298.324 548.284h51.068v51.068H298.32z"/>
  <path fill="#E73E23" d="M360.144 421.96h51.064v51.068h-51.064z"/>
  <path fill="#E096A5" d="M360.144 486.468h51.064v51.064h-51.064z"/>
  <path fill="#E84426" d="M360.144 548.284h51.064v51.068h-51.064z"/>
  <path fill="#E73C22" d="M615.48 421.96h51.064v51.068H615.48z"/>
  <path fill="#E74225" d="M615.48 486.468h51.064v52.008H615.48v-52.008zm0 63.56h51.064v52.012H615.48v-52.008z"/>
  <path fill="#E84A2A" d="M677.296 421.96h51.068v51.068h-51.068z"/>
  <path fill="#E74225" d="M677.296 486.468h51.068v51.064h-51.068z"/>
  <path fill="#B50080" d="M677.296 548.284h51.068v51.068h-51.068z"/>
  <path fill="#F9C053" d="M739.116 421.96h51.064v51.068h-51.06z"/>
  <path fill="#E73820" d="M739.116 486.468h51.064v51.064h-51.06z"/>
  <path fill="#B50080" d="M739.116 548.284h51.064v51.068h-51.06z"/>
  <path fill="#900000" d="M800.932 421.96H852v51.068h-51.068z"/>
  <path fill="#E096A5" d="M800.932 486.468H852v51.064h-51.068z"/>
  <path fill="#E7351F" d="M800.932 548.284H852v51.068h-51.068z"/>
  <path fill="#E73E23" d="M424.648 800.932h52.008V852h-52.008v-51.068zm63.564 0h52.008V852h-52.008v-51.068z"/>
  <path fill="#009F46" d="M550.972 800.932h51.068V852h-51.068z"/>
  <path fill="#E73E23" d="M424.648 736.428h51.068v51.068h-51.068z"/>
  <path fill="#E096A5" d="M486.468 736.428h51.064v51.068h-51.064z"/>
  <path fill="#E73E23" d="M549.76 738.08h52.28v52.1h-52.28v-52.1zm-127.8-60.784h52.28v52.1h-52.28v-52.1z"/>
  <path fill="#E7351F" d="M486.468 677.296h51.064v51.068h-51.064z"/>
  <path fill="#B50080" d="M550.972 677.296h51.068v51.068h-51.068z"/>
  <path fill="#E84D2C" d="M424.648 612.792h51.068v51.064h-51.068z"/>
  <path fill="#900000" d="M486.468 612.792h51.064v51.064h-51.064z"/>
  <path fill="#E84A2A" d="M550.972 612.792h51.068v51.064h-51.068z"/>
  <path fill="#E84426" d="M615.48 736.428h52.008v51.068H615.48v-51.068zm63.56 0h52.012v51.068H679.04v-51.068z"/>
  <path fill="#E096A5" d="M615.48 677.296h51.064v51.068H615.48z"/>
  <path fill="#E84A2A" d="M677.296 677.296h51.068v51.068h-51.068z"/>
  <path fill="#F29600" d="M739.116 677.296h51.064v51.068h-51.06z"/>
  <path fill="#E74225" d="M615.48 612.792h51.064v51.064H615.48z"/>
  <path fill="#E73C22" d="M677.296 612.792h51.068v51.064h-51.068z"/>
  <path fill="#E73E23" d="M739.116 612.792h51.064v51.064h-51.06z"/>
  <path fill="#900000" d="M424.648 357.456h51.068v51.064h-51.068z"/>
  <path fill="#E096A5" d="M486.468 357.456h51.064v51.064h-51.064z"/>
  <path fill="#E73E23" d="M550.972 357.456h51.068v51.064h-51.068z"/>
  <path fill="#E84A2A" d="M424.648 295.64h51.068v51.064h-51.068z"/>
  <path fill="#900000" d="M486.468 295.64h51.064v51.064h-51.064z"/>
  <path fill="#E84426" d="M550.972 295.64h51.068v51.064h-51.068z"/>
  <path fill="#E096A5" d="M424.648 233.82h51.068v51.06h-51.068z"/>
  <path fill="#E73E23" d="M486.468 233.82h51.064v51.06h-51.064z"/>
  <path fill="#B50080" d="M550.972 233.82h51.068v51.06h-51.068z"/>
  <path fill="#E84426" d="M236.504 357.456h51.068v51.064h-51.068z"/>
  <path fill="#E74225" d="M298.324 357.456h51.068v51.064H298.32z"/>
  <path fill="#E73820" d="M360.144 357.456h51.064v51.064h-51.064z"/>
  <path fill="#E74225" d="M236.504 295.64h51.068v51.064h-51.068z"/>
  <path fill="#E73E23" d="M298.324 295.64h51.068v51.064H298.32z"/>
  <path fill="#B50080" d="M360.144 295.64h51.064v51.064h-51.064z"/>
  <path fill="#E84426" d="M298.324 233.82h51.068v51.06H298.32z"/>
  <path fill="#E73C22" d="M360.144 233.82h51.948v52.34h-51.948v-52.34zm378.088 125.044h51.948v52.344h-51.948v-52.344z"/>
  <path fill="#E84A2A" d="M739.116 295.64h51.064v51.064h-51.06z"/>
  <path fill="#E73E23" d="M677.296 357.456h51.068v51.064h-51.068z"/>
  <path fill="#B50080" d="M677.296 295.64h51.068v51.064h-51.068z"/>
  <path fill="#E73C22" d="M677.296 233.82h51.068v51.06h-51.068z"/>
  <path fill="#E096A5" d="M615.48 357.456h51.064v51.064H615.48z"/>
  <path fill="#E73E23" d="M615.48 295.64h51.064v51.064H615.48z"/>
  <path fill="#E84426" d="M615.48 233.82h51.064v51.06H615.48z"/>
  <path fill="#E84A2A" d="M360.144 736.428h51.064v51.068h-51.064z"/>
  <path fill="#F29600" d="M360.144 677.296h51.064v51.068h-51.064z"/>
  <path fill="#E74225" d="M360.144 612.792h51.064v51.064h-51.064z"/>
  <path fill="#E84A2A" d="M298.324 736.428h51.068v51.068H298.32z"/>
  <path fill="#900000" d="M298.324 677.296h51.068v51.068H298.32z"/>
  <path fill="#E7351F" d="M298.324 612.792h51.068v51.064H298.32z"/>
  <path fill="#E84729" d="M236.504 677.296h51.068v51.068h-51.068z"/>
  <path fill="#E73C22" d="M236.504 612.792h51.068v51.064h-51.068z"/>
  <path fill="#E84426" d="M424.648 172h51.068v51.068h-51.068z"/>
  <path fill="#E84A2A" d="M486.468 172h51.064v51.068h-51.064z"/>
  <path fill="#E73820" d="M550.972 172h51.068v51.068h-51.068z"/>
</svg>