<svg xmlns="http://www.w3.org/2000/svg" viewBox="0 0 1024 1024" width="60" height="60">
  <path fill="#FFF" d="M224 0h576c123.6 0 224 100.4 224 224v576c0 123.6-100.4 224-224 224H224C100.4 1024 0 923.6 0 800V224C0 100.4 100.4 0 224 0z"/>
  <path fill="#FBC400" d="M850.4 338 686 504 517.2 338z"/>
  <path fill="#F39800" d="M850.4 661.2 686 843.2l-168.8-182z"/>
  <path fill="#C30E19" d="M517.2 661.2 346 843.2l-173.6-182z"/>
  <path fill="#F39800" d="M850.4 338 683.6 176.4 517.2 338z"/>
  <path fill="#FCC902" d="M850.4 661.2 683.6 509.6 517.2 661.2z"/>
  <path fill="#8D202E" d="m172.4 661.2 171.2-161.6L172.4 338z"/>
  <path fill="#ED6D00" d="M683.6 176.4 517.2 338 343.6 176.4z"/>
  <path fill="#DA4206" d="M343.6 176.4 172.4 338h344.8z"/>
  <path fill="#ED6D00" d="m517.2 661.2-172.4 182h344.8z"/>
  <path fill="#DA4206" d="M343.6 499.6 172.4 661.2h344.8z"/>
  <path fill="#C30E19" d="M517.2 338 343.6 499.6 172.4 338"/>
</svg>