<svg xmlns="http://www.w3.org/2000/svg" viewBox="0 0 1024 1024" width="60" height="60">
  <path fill="#FFF" d="M224 0h576c123.6 0 224 100.4 224 224v576c0 123.6-100.4 224-224 224H224C100.4 1024 0 923.6 0 800V224C0 100.4 100.4 0 224 0z"/>
  <path fill="#AE935C" d="M392 518c42.8 28.4 81.6 68.4 115.2 125.6 24-46.8 61.6-88 116.8-122-66-42.8-95.2-82.4-119.2-121.6-30.8 54-70 91.2-112.8 118"/>
  <path fill="#EC440E" d="M172 516.4c0 7.6.4 14.8.8 22 112.4 12.4 204.8-66.4 302-194.4 79.6-104.8 224-124.8 341.2 27.6C762 256 645.2 176 510 176c-186.8 0-338 152.4-338 340.4"/>
  <path fill="#83120E" d="M547.2 692.4C466.4 796.8 321.6 807.2 204 649.6 256 768.4 375.2 852 514.4 852 700.8 852 852 702 852 517.2c0-5.2 0-10.4-.4-15.6-8.8-1.2-17.2-1.6-25.6-1.6-102 0-188.4 75.2-278.8 192.4"/>
</svg>