<svg xmlns="http://www.w3.org/2000/svg" viewBox="0 0 1024 1024" width="64" height="64">
  <path fill="#B90A7A" d="M205.783 403.652H49.976c-26.766 0-48.463 21.683-48.463 48.428 0 26.746 21.699 48.428 48.464 48.428h58.428v-66.531h38.045v66.531h59.333c26.765 0 48.464-21.682 48.464-48.428 0-26.745-21.699-48.428-48.464-48.428zm0 130.15h-45.489l48.875 48.839-26.905 26.883-54.839-54.8-54.838 54.8-26.903-26.886 48.871-48.836H49.977c-26.765 0-48.464 21.683-48.464 48.429 0 26.744 21.699 48.427 48.464 48.427h155.806c26.765 0 48.464-21.683 48.464-48.427 0-26.746-21.699-48.429-48.464-48.429z"/>
  <path fill="#ADC5C9" d="M144.937 435.49h-35.019v66.531H49.977c-27.6 0-49.977-22.36-49.977-49.94 0-27.583 22.375-49.942 49.976-49.942h155.807c27.6 0 49.977 22.36 49.977 49.941 0 27.582-22.376 49.941-49.977 49.941h-60.846v-66.53zm3.027-3.027v66.532h57.819c25.93 0 46.95-21.005 46.95-46.915s-21.02-46.914-46.95-46.914H49.976c-25.93 0-46.95 21.004-46.95 46.914s21.021 46.915 46.951 46.915h56.914v-66.532h41.073zm34.3 174.922 24.764-24.744-50.39-50.352h49.145c27.6 0 49.977 22.36 49.977 49.942 0 27.58-22.376 49.94-49.977 49.94H49.977c-27.6 0-49.977-22.36-49.977-49.94 0-27.582 22.376-49.942 49.977-49.942H98.21l-50.386 50.35 24.762 24.745 54.838-54.799 54.84 54.8zm23.52-72.07H163.95l47.36 47.326-29.046 29.022-54.839-54.799-54.838 54.8-29.044-29.026L90.9 535.316H49.977c-25.93 0-46.95 21.005-46.95 46.915 0 25.909 21.02 46.914 46.95 46.914h155.806c25.93 0 46.95-21.005 46.95-46.914 0-25.91-21.02-46.915-46.95-46.915z"/>
</svg>