<svg xmlns="http://www.w3.org/2000/svg" viewBox="0 0 1024 1024" width="64" height="64">
  <path fill="#E50619" d="m74.027 508.647 1.947-61.96.017-.46c.248-5.157 2.273-8.563 8.82-8.563h8.538V415.33A2.33 2.33 0 0 1 95.68 413h35.181a2.33 2.33 0 0 1 2.331 2.33v22.334h8.538c6.794 0 8.637 3.51 8.83 8.798l1.954 61.884-28.459 16.542v-37.145c0-5.113-4.194-9.174-9.137-9.174h-2.995c-5.093 0-9.137 4.21-9.137 9.174v37.446l-28.759-16.542zm80.838 4.277 52.703 32.666c4.615 2.836 6.768 6.327 3.398 12.162l-4.269 7.391 19.348 11.167a2.33 2.33 0 0 1 .921 3.058l-.068.126-17.59 30.456a2.333 2.333 0 0 1-3.184.853l-19.348-11.166-4.269 7.391c-3.397 5.882-7.359 5.722-12.037 3.245l-54.588-29.25-.102-32.909 32.18 18.573c4.43 2.557 10.044.956 12.516-3.323l1.498-2.594c2.546-4.409.92-10.015-3.38-12.497l-32.44-18.723 28.71-16.626zm-82.519 0L19.643 545.59c-4.615 2.836-6.768 6.327-3.398 12.162l4.27 7.391-19.35 11.167a2.33 2.33 0 0 0-.92 3.058l.067.125 17.59 30.457a2.333 2.333 0 0 0 3.184.853l19.348-11.166 4.27 7.391c3.396 5.882 7.358 5.722 12.036 3.245l54.588-29.25.102-32.909-32.18 18.573c-4.43 2.557-10.044.956-12.516-3.323l-1.498-2.594c-2.546-4.409-.92-10.015 3.38-12.497l32.44-18.723-28.71-16.626z"/>
</svg>