<svg xmlns="http://www.w3.org/2000/svg" viewBox="0 0 1024 1024" width="64" height="64">
  <path fill="#E30016" d="M794.746 438.124c0 36.96-21.92 53.637-46.396 53.637h-28.493V386.304h31.414c27.41 0 43.475 22.464 43.475 51.82zM1024 559.445c0-52.253-36.635-68.291-69.647-79.58-27.22-9.464-54.789-18.928-54.789-49.509 0-34.581 23.22-48.053 50.796-48.053 31.931 0 48.608 19.655 52.601 61.161h11.603l-1.442-57.153c-16.684-9.107-40.636-15.29-58.413-15.29-45.716 0-80.198 24.754-80.198 73.898 0 39.68 30.502 58.622 59.883 69.946 31.2 12.057 63.487 19.003 63.487 58.093 0 35.082-18.496 54.03-50.427 54.03-38.823 0-60.594-24.424-63.138-70.466h-11.623l2.18 66.5c18.524 10.067 49.36 15.462 70.044 15.462 50.065 0 79.083-32.64 79.083-79.039zm-183.403 4.356c0-54.97-37.171-65.226-75.317-67.408v-.736c29.769-4.749 63.667-16.429 63.667-60.965 0-39.065-23.326-60.614-68.017-60.614H655.666v10.963h29.309v239.58h-29.31v10.806h101.636c41.034 0 83.296-15.568 83.296-71.626zM640.382 386.514v-10.908H572.4v10.908h27.848v159.25c0 45.938-11.577 78.744-57.233 78.744-47.106 0-59.4-29.526-59.4-78.745v-159.25h30.383v-10.907H420.3v10.908h28.223v162.522c0 48.5 14.836 89.448 83.25 89.448 69.186 0 83.304-41.31 83.304-90.167V386.514h25.306zm163.534 177.09c0 37.335-20.026 61.124-59.323 61.124h-24.736V502.46h29.83c30.917 0 54.23 20.51 54.23 61.144z"/>
</svg>