<svg xmlns="http://www.w3.org/2000/svg" viewBox="0 0 1024 1024" width="64" height="64">
  <path fill="#6B1785" d="M137.473 512.2c-2.33-10.411-25.623-5.784-36.106 2.313v-17.35c8.153-4.627 19.8-5.784 30.282-5.784 15.141 0 23.294 4.627 23.294 21.977v55.52c-13.976-1.156-31.446 5.784-43.093 2.314-11.647-4.627-17.47-13.88-17.47-25.447 0-24.29 24.458-27.76 43.093-24.29v-9.254zm0 23.133c-10.482-2.314-29.117-2.314-27.953 10.41 1.165 16.194 19.8 9.254 27.953 9.254v-19.664zm47.752 35.857h-17.47v-77.498c15.14 0 33.776-5.783 47.752-1.156 12.812 4.626 11.647 16.193 11.647 39.327v39.327H208.52v-48.58c0-15.577 0-16.194-23.294-13.88v62.46zm83.858-43 33.776 43.495h-22.13l-26.787-32.622v32.622h-18.635V470.558h18.635v48.933l25.623-25.01h22.13l-32.612 33.709z"/>
  <path fill="#E5A600" d="M60.62 451H0v120.69h60.62c5.83 0 10.492-1.16 15.155-3.48H64.118v-3.482h17.486l3.498-3.482H64.118v-4.641h24.481c1.166-1.161 1.166-2.321 2.332-3.482H18.652v-3.481h73.444c1.166-1.16 1.166-2.321 1.166-3.482h-74.61v-3.481h74.61v-3.482h-74.61v-3.481h74.61v-4.642h-74.61v-3.482h73.444c0-1.16-1.165-2.32-1.165-3.481H19.818v-3.482H88.6l-3.497-3.481H58.289v-4.642h22.15c-1.166-1.16-3.498-2.321-5.83-3.482H58.29v-3.481h8.16c3.498 0 6.995-1.16 9.326-3.481H18.652v-3.482H80.44l3.497-3.481H18.652v-3.482h67.615c1.166-1.16 1.166-2.32 1.166-3.481h-68.78v-4.642h69.946v-3.482H18.652v-3.481H88.6v-3.482H18.652v-3.481h68.781c0-1.16-1.166-2.321-1.166-3.482h-22.15v-4.642h19.819l-3.497-3.481H64.118v-3.482H74.61c-3.498-2.32-9.327-3.481-13.99-3.481"/>
</svg>