<svg xmlns="http://www.w3.org/2000/svg" viewBox="0 0 1024 1024" width="64" height="64">
  <path fill="#D20016" d="M247.47 485.302c15.196 15.389 15.067 40.176-.316 55.38l-90.706 89.767c-15.387 15.206-40.166 15.098-55.361-.268l-89.801-90.73c-15.165-15.365-15.033-40.142.312-55.34l90.706-89.794c15.333-15.214 40.135-15.062 55.381.295l89.785 90.69zm-104.692 3.995c-1.232-.101-2.442-.118-3.416.148-.867.226-1.944 1.662-2.902 2.545-3.002 2.781-8.53 7.942-8.53 7.942l-14.027-13.158 13.498-13.21s5.924 5.543 8.979 8.388c1.027.894 2.195 2.462 3.157 2.7.959.24 2.1.286 3.26.267 1.092-.015 7.362-.051 9.843-.047-1.142-12.35-11.532-22.014-24.212-22.014-13.418 0-24.31 10.861-24.31 24.261 0 13.41 10.892 24.26 24.31 24.26 12.65 0 23.047-9.67 24.193-21.997-1.306 0-9.488-.059-9.843-.085zm58.721 12.838c-14.423-18.263-28.75-36.544-43.056-54.44-1.648 1.098-3.861 2.958-5.626 4.415 3.271 4.252 6.52 8.707 9.81 13.202 3.236 4.45 7.151 8.91 8.963 14.176 1.561 4.571 1.05 9.262-1.094 13.146-1.709 3.217-4.73 6.066-7.385 9.154-5.289 6.13-10.356 11.903-15.423 17.984-4.071 4.964-9.415 9.254-10.895 16.673-1.3 6.429 1.553 12.18 3.716 15.81 3.552 6.063 8.834 11.949 13.526 17.462.847 1.007 4.306 4.763 4.852 5.346h32.76c-.75-.903-4.267-5.14-6.204-7.428-2.158-2.572-4.32-5.173-5.714-7.96-2.713-5.402-1.358-12.098 1.233-16.241 3.237-5.227 8.366-10.55 12.726-15.534 3.073-3.525 9.26-11.944 9.26-11.944s.066-.092.101-.123c3.123-4.788 3.056-7.716-1.55-13.698zm-146.235 0c-4.598 5.982-4.688 8.91-1.557 13.698.039.031.098.123.098.123S60 524.375 63.073 527.9c4.356 4.985 9.49 10.307 12.73 15.534 2.588 4.143 3.963 10.84 1.218 16.241-1.377 2.787-3.544 5.388-5.704 7.96a867.356 867.356 0 0 0-6.183 7.428h32.774c.522-.583 3.965-4.339 4.817-5.346 4.684-5.513 9.994-11.4 13.538-17.461 2.152-3.631 5.01-9.382 3.697-15.81-1.471-7.42-6.816-11.71-10.887-16.674-5.06-6.081-10.128-11.854-15.425-17.984-2.647-3.088-5.66-5.937-7.383-9.154-2.147-3.884-2.665-8.575-1.092-13.146 1.82-5.266 5.727-9.725 8.951-14.176 3.315-4.495 6.551-8.95 9.82-13.202-1.758-1.457-3.96-3.317-5.63-4.415-14.3 17.896-28.628 36.177-43.05 54.44z"/>
  <path fill="#000200" d="M364.772 431.406c-.704-9.102-5.889-13.645-15.597-13.645-10.082.664-15.31 4.543-15.612 11.683-.698 6.855 7.107 10.85 19.79 13.646 15.351 2.843 34.148 12.397 33.803 24.415-.697 18.86-14.374 28.61-41.11 29.266-25.362-.319-37.7-10.238-36.996-29.746h20.846c0 10.706 5.38 16.219 16.15 16.598 12.461-.38 18.883-4.244 19.279-11.741 0-5.82-6.084-10.065-18.257-12.69-1.417-.277-2.639-.584-3.675-.949-21.53-4.215-32.064-12.537-31.711-24.897 1.042-18.211 14.374-28.086 40.088-29.712 20.825 1.27 31.77 10.503 32.776 27.772h-19.774zm82.37 64.307-1.082-8.378c-4.922 6.297-12.238 9.436-22.002 9.436-13.16-.7-21.195-5.39-24.178-14.141-1.177-2.776-1.56-6.245-1.177-10.475v-44.011h21.392v40.908c.386 10.43 4.718 15.507 12.986 15.163 7.848-.686 12.18-5.755 12.98-15.163v-40.908h21.985v55.53c0 2.206-.391 3.859 0 6.269.378 2.469.516 4.375.516 5.77h-21.42zm57.18-67.694v7.808l.56.529c3.737-6.248 10.941-9.527 21.694-9.846 12.596 1.756 20.365 6.566 23.344 14.541.708 4.18 1.289 7.656 1.669 10.433v43.653H529.87v-40.024c-.35-10.057-4.582-15.246-12.731-15.615-7.841.668-12.115 5.884-12.818 15.615v40.024h-21.108V428.02h21.108zm83.109-1.577v7.76l.522.565c3.723-6.26 10.931-9.528 21.678-9.891 12.584 1.74 20.323 6.554 23.28 14.56.752 4.155 1.318 7.6 1.704 10.392v43.675h-21.713V453.46c-.33-10.021-4.645-15.198-12.743-15.575-7.802.68-12.063 5.872-12.728 15.575v40.043h-21.19v-67.06h21.19zm91.746 49.64 16.634-46.304h21.83L680.34 521.28h-21.875l9.209-24.407-28.175-67.096h23.6l16.078 46.303zm71.276 17.984h-11.648V402h12.227v32.231h.541c4.459-6.51 11.54-10.064 21.233-10.74 19.22 1.369 29.6 12.8 31.117 34.246-1.1 24.228-12.074 36.658-32.837 37.4-9.664-.364-16.379-3.407-20.054-9.225h-.579v8.154zm20.046-59.835c-13.354.35-20.046 10.056-20.016 29.157.388 14.651 7.197 22.335 20.603 23.04 12.607-.349 19.285-9.212 20.068-26.594 0-16.74-6.934-25.253-20.655-25.603zm43.77 12.102c.391-15.076 10.464-22.755 30.334-23.091 17.638 1.03 26.616 7.518 27.015 19.502v39.547c0 3.04 1.413 4.444 4.369 4.107h1.624c1.138-.35 2.029-.518 2.827-.518v8.235h-3.349c-1.478.277-2.718.481-3.855.481-8.768 0-13.044-3.258-12.645-9.763-7.377 6.885-16.334 10.304-27.058 10.304-14.661-.745-22.406-7.008-23.096-18.998 0-12.358 7.472-19.503 22.602-21.601l20.341-2.045c4.434-.352 6.645-3.07 6.645-8.213-.405-7.148-6.238-10.954-17.658-11.269-10.298.315-15.77 4.766-16.552 13.322h-11.545zm45.175 12.853c-2.876 1.71-9.753 3.244-20.385 4.595-10.623.995-15.797 4.648-15.455 10.808-.342 7.855 3.875 11.809 12.73 11.809 13.98-.708 21.682-6.007 23.11-15.915v-11.297zm90.996 35.951h-12.189V452.42c.37-12.491-5.005-18.555-15.989-18.244-12.945 1.06-19.358 8.694-19.358 22.942v38.02h-12.698V425.31h12.138v9.925c5.564-7.686 13.054-11.653 22.635-11.993 16.555.689 25.097 8.836 25.461 24.484v47.411zm43.167-44.133 30.092 42.5h-16.144L984.113 459.1l-10.015 9.104v25.298h-12.262V402h12.262v52.523l32.306-28.816h15.647l-28.444 25.297z"/>
</svg>