<svg xmlns="http://www.w3.org/2000/svg" viewBox="0 0 1024 1024" width="64" height="64">
  <path fill="#DA251C" d="M85.741 511.7c-.1.1-.1.2-.2.3-.1-.1-.1-.2-.2-.2-.6.2-1.1 1-1.4 2-.2 1.1-.7 2.1-.9 3.2-.2 1-.2 2-.6 3.4-1-1.4-2.4-2.5-3.4-3.9-1.9-2.7-3.3-5.7-3.7-9.1-.4-3-2.7-4.9-5.4-6.1-1.6-.7-1.6-.8-.6-2.3 3.2-4.6 7.5-7.7 12.9-9.1 4.9-1.3 9.7-1 14.3 1.7 3.1 1.9 5.4 4.4 7.7 7.1 1.7 2 3.5 4 5.6 5.7 1.2 1 3 1.6 4.6 1.9 3.3.7 6.8.8 10.1 1.7 2.3.6 4.1 2.4 5 4.9.4 1.2.1 2-.7 2.8-1.6 1.6-3.3 3.1-4.9 4.7-1.7 1.7-3.3 3.5-4.9 5.2-1.4 1.5-2.7 3-4.2 4.3-.4.4-1.4.6-1.9.3-3.2-1.6-6.6-3.1-9.5-5.2-2.9-2.1-4.7-5.1-3.5-9.1.3-1 .3-2 0-2.9-.1-.3-.5-.7-.9-1-.2-.1-.5-.2-.7-.2-.6 0-1.5.7-1.6 1.2-.5 2.6-.8 5.2-1.1 7.8-.2 1.6.5 2.8 1.4 4l.6.9c-2.1.2-4.9-2.2-5.1-4.5-.1-1.6.1-3.3.3-5 .1-1 .4-2 .4-3 0-.6-.7-1.5-1-1.5-.6 0-1.6.5-1.7 1-.6 2.2-1.2 4.4-1.3 6.7-.1 1.6.5 3.3.8 4.8-2-.1-4.4-3.5-3.9-5.3.4-1.5.7-3.1 1.1-4.7.2-1.1.2-2.2-1.2-2.5h-.3zm13.9-4c-.3-.4-.7-.7-1-.8-.5-.1-.9.1-1.2.4-.3.3-.5.8-.4 1.3 0 .3.3.6.5.9-.1-.5.1-1.1.4-1.5.3-.4.8-.6 1.3-.5.1 0 .3.1.4.2zm-12.6.8c.1-.9-.6-1.6-1.5-1.6-.4 0-.9.1-1.2.5s-.4.8-.4 1.2v.2c.1-.2.2-.5.3-.6.3-.4.8-.6 1.2-.6.8-.1 1.4.3 1.6.9zm6.5.1c-.1-.7-.9-1.5-1.4-1.6-.5-.1-1.2.7-1.9 1.2v.7c.1.1.2.2.3.2.7-.5 1.4-1.5 2-1.4.3-.1.7.4 1 .9zm65.7-2.9h-14.3c-.9 0-1.6-.2-2-1.1-.2-.3-.4-.6-.7-.9-3-2.8-5.9-5.6-8.9-8.5-1.9-1.8-3.6-3.8-5.5-5.7l-8.1-7.8c-2.2-2.1-4.4-4.3-6.5-6.4-1.9-1.9-3.7-4-5.7-5.9-2.6-2.5-5.4-4.8-7.8-7.5-1.8-2.1-3.9-3.6-6.6-4.2-4.3-.9-7.9.3-10.8 3.6-1.6 1.8-3.5 3.3-5.1 5.1-2.9 2.9-5.7 5.9-8.7 8.8-1.7 1.7-3.5 3.3-5.2 5-2.7 2.7-5.4 5.6-8.1 8.3-1.8 1.8-3.7 3.4-5.4 5.2-2.6 2.6-5.2 5.4-7.8 8-1.2 1.2-2.4 2.5-3.6 3.6-2.9 2.6-3.4 7.6-2.2 10.6 1 2.6 3 4.4 4.8 6.2 2 2 4 4 6 5.9l11.7 11.4c1.9 1.9 3.7 3.8 5.6 5.7 4.4 4.4 8.8 8.8 13.3 13.1 1.9 1.9 3.9 3.9 5.9 5.8 2.8 2.6 6.1 3.1 9.8 2.5 2.5-.4 4.2-1.8 5.9-3.5 14.2-14.2 28.5-28.3 42.5-42.5 1.9-1.9 3.7-2.5 6.2-2.5 8.6.1 17.2 0 25.8 0 5.7 0 7.1 1.9 6.4 7.2-.5 3.9-1.3 7.7-2.5 11.5-1.5 4.7-3.2 9.4-5.3 13.9-1.4 3.2-3.3 6.2-5.2 9-2.4 3.7-5 7.2-7.8 10.7-1.7 2.2-3.8 4.1-5.8 6-1.9 1.8-3.8 3.6-5.8 5.2-3.8 3.1-7.8 6-12.2 8.3-4.1 2.1-8.3 4.3-12.6 6.1-3.3 1.4-6.8 2.6-10.4 3.4-7.1 1.5-14.2 2.8-21.5 2.8-6 0-12-.6-17.9-1.7-4.8-.9-9.4-2-13.9-3.8l-9.6-3.9c-1.1-.5-2.1-1.1-3-1.7-3.9-2.6-7.8-5-11.6-7.8-3.1-2.3-6.1-4.8-8.9-7.5-2.8-2.8-5.2-6-7.7-9.1-1.9-2.4-3.6-4.8-5.3-7.3-1-1.5-1.8-3.2-2.7-4.8-3.8-6.9-6.6-14.3-8.3-22-2.4-11.5-2.9-23.1-.9-34.8 1-5.9 2.7-11.7 4.8-17.3 1.5-3.9 3.5-7.7 5.6-11.4 2-3.5 4.2-6.9 6.6-10.1 2.3-3.2 4.8-6.3 7.5-9.1s5.8-5.2 8.8-7.7c2.5-2 5-4 7.7-5.7 2.9-1.8 6-3.2 8.9-4.8 4.9-2.7 9.7-4.6 14.8-6 12.5-3.4 25.2-4.7 38.1-2.5 6.7 1.2 13.2 2.6 19.6 5.2 4.7 1.9 9.4 3.9 13.6 6.7 3.2 2.1 6.4 4.2 9.5 6.6 3.1 2.4 6.1 5 9 7.7 1.7 1.6 3.1 3.5 4.5 5.3 1.9 2.4 3.9 4.7 5.6 7.3 2.5 3.9 4.9 7.8 6.9 11.9 2.9 6.1 5.1 12.5 6.5 19.1.4 2 .7 4 .8 6.1.3 3.9-2.3 6.7-6.3 6.8-4.9-.1-9.7-.1-14.5-.1zm-100.2 1.7c2.5.3 4.8 1.4 6.6 3.2 1.9 1.8 3.8 3.6 5.5 5.6 1.6 1.8 2.9 3.8 4.4 5.7.9 1.2 1.8 2.4 2.6 3.7 1.8 3 4.2 5.4 7.5 6.4 2 .6 4 1 6 1.1 2.7.1 5.4-.1 8.1-.2 2.7-.1 5.3 0 7.7 1.5.9.5 1 .9.2 1.7-1.9 1.9-3.6 3.9-5.4 5.9-1.9 2-3.8 4.1-5.7 6.1-.8.9-1.8 1.8-2.7 2.6-1.6 1.2-3.5 1.2-5.1 0-2.3-1.9-4.6-4-6.8-6-1.8-1.6-3.6-3.3-5.3-5-1.5-1.5-2.9-3.2-4.4-4.7l-5.4-5.4c-1.5-1.6-3-3.2-4.6-4.8-1.8-1.9-3.6-3.7-5.3-5.6-1.6-1.7-3.1-3.4-4.7-5.1-.5-.6-1-1.1-1.5-1.6-.8-.7-.7-1.1-.1-1.9 1.8-1.8 6.1-3.1 8.4-3.2z"/>
  <path fill="#DA251C" d="M208.841 548.9h806.7v6.3h-806.7z"/>
</svg>