<svg xmlns="http://www.w3.org/2000/svg" viewBox="0 0 1024 1024" width="64" height="64">
  <path fill="#CA1A1D" d="M30.185 573.4c1.2-3.5 3.5-4.6 5.8-3.5 10.5 2.3 21 4.6 31.5 5.8 3.5 1.2 3.5 1.2 5.8 3.5 4.7 5.8 10.5 10.4 16.3 15.1 18.7 13.9 42 19.7 64.2 17.4 4.7-1.2 4.7 0 3.5 4.6-1.2 3.5-3.5 5.8-5.8 9.3-21 29-63 34.7-93.4 12.7-22-16.3-33.7-41.8-27.9-64.9zm204.3-35.9c1.2-3.5 2.3-3.5 5.8-1.2 2.3 2.3 4.7 4.6 7 8.1 21 29 14 70.6-16.3 92.7-21 15.1-49 18.5-70 5.8-3.5-1.2-3.5-3.5-2.3-5.8 5.8-10.4 11.7-19.7 15.2-29 1.2-3.5 1.2-3.5 4.7-4.6 7-2.3 14-5.8 19.8-10.4 19.7-14 31.4-33.6 36.1-55.6zm-24.8-41.8c3.4 9.3 5.6 18.6 5.6 29.1 1.1 40.8-32.6 73.4-71.9 73.4-11.2 0-21.3-2.3-30.3-7-1.1 0-2.2-1.2-2.2-2.3V533c0-4.7 3.4-5.8 5.6-2.3l23.6 24.5c1.1 1.2 1.1 1.2 3.4 0 20.2-19.8 40.4-40.8 60.6-60.6 1.1-1.2 4.5-1.2 5.6 1.1zm-152.6-67.1c3.5 0 4.7 1.2 4.7 4.6 1.2 11.6 2.3 22 4.7 32.4 1.2 3.5 1.2 2.3-1.2 5.8-3.5 5.8-7 12.7-9.3 19.7-8.2 22-4.7 45.2 3.5 66 2.3 3.5 1.2 4.6-3.5 4.6-3.5 0-7-1.2-10.5-2.3-35-11.6-53.7-48.6-42-84.5 8-25.5 29.1-44 53.6-46.3zm87.5 17.4c11.7 0 22.2 2.3 31.5 6.9 1.2 0 2.3 1.2 2.3 2.3v55.6c0 4.6-3.5 5.8-5.8 2.3l-24.5-24.3c-1.2-1.2-1.2-1.2-3.5 0-21 20.8-42 40.5-63 60.2-1.2 1.2-4.7 1.2-5.8-1.2-3.5-9.3-5.8-18.5-5.8-29-2.4-40.4 32.6-72.8 74.6-72.8zm56-17.4c35-11.6 72.4 8.1 84 44 8.2 25.5 2.3 52.1-16.3 68.3-2.3 3.5-4.7 2.3-8.2 0-7-8.1-14-16.2-22.2-23.2-2.2-2.2-2.3-2.3-2.3-5.2v-.5c-1.2-8.1-2.3-15.1-4.7-22-7-22-23.3-39.4-42-51-3.5-2.3-2.3-3.5 1.2-5.8s7-3.5 10.5-4.6zm-57.2-55.6c26.8 0 51.4 13.9 60.7 35.9 1.2 3.5 0 5.8-2.3 5.8-10.5 3.5-19.8 8.1-29.2 13.9-2.3 2.3-2.3 2.3-5.8 1.2-7-1.2-15.2-2.3-22.2-2.3-23.3 0-45.5 9.3-61.9 24.3-3.5 2.3-4.7 2.3-5.8-2.3-1.2-3.5-1.2-8.1-1.2-11.6 0-35.9 30.4-64.9 67.7-64.9z"/>
  <path fill="#040000" d="M1024.685 453.1c2.3 21.5-10.4 10.7-25.4 20.3-1.2 26.2-1.2 51.3-1.2 77.5-4.6 9.5-6.9 17.9-18.5 19.1-6.9-6-25.4-15.5-25.4-27.4 11.5 0 17.3 2.4 21.9-8.3 0-17.9 2.3-37-1.2-53.7-6.9-7.2-19.6 1.2-26.5 4.8-10.4 0-12.7-10.7-21.9-13.1-5.8 6-8.1 10.7-12.7 19.1-1.2 11.9-1.2 54.9-2.3 60.8l-3.5 3.6c-3.5-1.2-6.9-1.2-10.4-1.2-5.8-13.1-3.5-46.5-3.5-50.1v-4.8c-1.2 0-1.2 2.4-3.5 3.6-2.3 2.4-9.2 7.2-13.8 3.6 0-13.1 32.3-41.7 38.1-51.3h5.8c8.1 8.3 12.7 9.5 24.2 9.5 11.5-3.6 21.9-7.2 33.5-9.5 9.4-1.3 37.1-12 46.3-2.5zm-620.6-55.7c10.5-18.4 26.8 11.5 29.1 18.4 11.6 4.6 36-5.8 32.5 17.3-9.3 5.8-20.9 6.9-32.5 9.2-3.5 2.3-3.5 2.3-5.8 8.1 0 1.2 1.2 2.3 1.2 4.6 9.3 0 20.9 2.3 29.1-2.3 15.1 0 20.9 0 26.7 13.8-1.2 26.5-4.6 53-7 79.5l-3.5 10.4c-8.1 8.1-15.1 5.8-24.4 0-7-6.9-12.8-11.5-12.8-20.7 3.5-3.5 11.6-2.3 16.3-3.5 9.3-9.2 7-41.5 5.8-54.1-5.8-3.5-9.3-4.6-16.3-1.2 0 5.8 2.3 10.4 2.3 15-4.6 4.6-8.1 5.8-9.3 11.5 2.3 0 5.8 1.2 8.1 1.2 11.6 15-11.6 17.3-16.3 24.2v19.6c0 5.5-2.5 10.2-5.8 13.8-5.5 4.3-7 4.3-9.3 3.5-9.3-9.2-9.3-23-8.1-35.7-1.2-1.2-2.3-3.5-4.6-4.6-4.6 1.2-5.8 1.2-9.3 5.8h-9.3c-9.3-9.2-7-15 7-18.4 2.3-2.3 2.3-5.8 3.5-8.1-2.3-1.2-5.8-2.3-8.1-3.5 0-5.8 3.5-8.1 7-11.5-3.4-9-4.6-9.2-14.4-9.2h-.7l-7 3.5v63.4c-1.2 1.2-2.3 3.5-3.5 4.6h-7l-5.8-5.8c-1.2-25.3-2.3-50.7-7-74.9 4.6-4.6 11.6-2.3 18.6-3.5 9.3-2.3 19.8-4.6 29.1-6.9 1.1-1.1 1.2-1.1 1.2-6v-1l-1.2-1.2c-11.6-1.2-32.5-1.2-32.5-18.4 10.5-9.2 26.7-4.6 39.5-8.1 2.2-9.2 4.5-19.6 4.5-28.8zm180.2-4.6c17.4 0 9.3 2.3 11.6 8.1 2.3 5.8 4.6 12.7 7 19.6 1.5 4.6 8.1 4.6 19.8 0 12.8-2.3 34.9-10.4 32.5 10.4-16.3 8.1-38.4 5.8-54.6 12.7-15.1 2.3-30.2 5.8-45.3 8.1l-7 2.3c-1.2 1.2 1.2 3.5 1.2 4.6 5.8 0 22.9 4.5 38-2.5 15.1-6.9 35.2-12.5 45.7 3.6 0 9.2-11.6 25.3-15.1 33.4-5.8 3.5-12.8 6.9-18.6 11.5 0 15 5.4 48.3-8.6 58.7l-.1.1-.1.1c-2.1 1.9-5.4 1.7-7.3-.4l-.5-.6c-1.7-1.8-3.5-3.4-5.4-4.9-6.9-5.6-13.5-9.5-19.8-11.5-4.1 3-10.5 7.6-15.1 5.8-5.9-2.4-9.3-12.4-7-19.6 4.1-12.7 7-19.6 22.1-21.9 3.5 8.1 2.3 15 2.3 24.2 0 1.2 1.2 3.3 3.5 4.6 16.3 6.9 16.3-6.9 17.4-18.4-1.2-13.8-4.6-18.4-18.6-12.7h-4.6c-4.6-10.4-9.3-19.6-15.1-28.8-1.2-6.9-1.2-15-1.2-21.9-11.7-2.4-33.8 1.1-31.5-17.4 13.9-2.3 13.9-2.3 20.9-4.6 11.6-1.2 34-1.2 47.1-9.2 3.2-1.7 6.4 0 .6-12.7s-11.7-20.7 5.8-20.7zm198.7 16.1c13.9-5.8 29.1-19.6 40.7 0 0 19.6-11.6 39.2-12.8 58.8 5.8 1.2 11.6 4.6 17.4 5.8v10.4c-7 1.2-20.9 4.6-20.9 12.7 12.8 12.7 33.7 16.1 50 23 1.1 2.2 1.2 2.3 1.2 6.2v.7c-7.9 5.6-21.1 5.8-31.5 5.8h-1.1c-8.1-4.6-13.9-10.4-23.2-10.4-11.6 12.7-22.1 25.3-33.7 35.7-2.3 2.3-5.8 3.5-8.1 3.5-13.9-13.8-3.5-31.1-5.8-47.2h-7c-11.6 11.5-17.4 27.6-27.9 38h-5.8c-8.1-8.1-11.6-11.5-9.3-23 5.8-6.9 9.3-11.5 9.3-20.7-7-3.5-10.5-4.6-18.6-4.6-8.1-21.9 19.8-8.1 18.6-24.2-12.8-9.2-13.9-3.5-26.7-3.5-2.3-1.2-4.6-3.5-7-4.6v-6.9c15.1-17.3 34.9-33.4 40.7-57.6 1.2-1.2 2.3-3.5 3.5-4.6h5.8c2.3 1.2 2.3 1.2 20.9 28.8 2.3 0 4.6 3.5 8.1 3.5 2.3-4.6-1.2-17.3-1.2-24.2 8.2-.2 16.3-1.4 24.4-1.4zm-144.9 105c5.8 2.4 11.5 10.8 13.8 16.7 2.3 5.9 2.3 11.9 0 16.7-3.5 4.8-5.4 5.4-8.8 6.5s-8.7 1.1-13.3-9.7c-4.6-10.7-18.3-15.9-16-31.4 8.1-2.4 18.5-1.2 24.3 1.2zm138-8.2c-2.3 8.1-2.3 11.5 0 18.4 2.3-1.2 4.6-1.2 7-1.2 10.4-6.8 4.6-17.2-7-17.2zm-29.1-59.9c-7-18.4-20.9 0-27.9 8.1v4.6c8.1 1.2 30.2-11.5 25.6 5.8-4.6 2.3-8.1 5.8-11.6 8.1v5.8c2.3 2.3 5.8 3.5 9.3 4.6 5.8 11.5-12.8 13.8-12.8 26.5 1.2 0 1.2 1.2 2.3 1.2 5.8-2.3 5.8-2.3 15.1-8.1 3.5 0 7-1.2 10.5-1.2 1.2-13.8 5.8-36.9 1.2-49.5-3.6-2.4-8.2-4.8-11.7-5.9zm-147.6 36.9c11.6-23-24.4-12.7-31.4-5.8 0 6.9-1.2 10.4 5.8 13.8 11.6 0 16.3-1.1 25.6-8zm-187.1-5.8c-2.3 1.2-3.5 1.2-4.6 2.3 0 2.3 1.2 5.8 1.2 8.1 2.3 0 3.5-1.2 5.8-2.3-.1-3.5-.1-5.8-2.4-8.1zm388.2-6.9c-5.8-1.2-17.4 4.6-20.9 8.1 1.2 4.6 0 5.8 3.5 9.2 9.3-1.2 11.6-4.6 17.4-11.5V470zm-10.5-12.7c0-8.1-4.6-5.8-12.8-5.8-1.2 0-1.2 1.2-2.3 2.3 1.2 2.3 3.5 4.6 7 6.9 2.3-1.1 5.8-2.2 8.1-3.4zm126.7-56.4c23.2 16.1 13.9 18.4-5.8 35.7-8.1 5.8-17.4 11.5-29.1 15 0-5.8-1.2-6.9 1.2-11.5 11.6-12.7 19.8-24.2 26.7-39.2h7zm-123.2 24.2c-9.3-1.2-9.3-1.2-17.4 0-3.5 8.1-1.2 8.1 4.6 13.8 3.5 0 8.1-1.2 11.6-1.2 4.7-5.7 4.7-6.9 1.2-12.6zm212.7-4.6c-9.3 6.9-47.2 12.7-53.5 12.7-5.8-4.6-9.3-5.8-9.3-12.7 0-1.3 1.2-2.3 2.3-2.3 16.3-5.8 65.1-33.5 60.5 2.3z"/>
</svg>