<svg xmlns="http://www.w3.org/2000/svg" viewBox="0 0 1024 1024" width="64" height="64">
  <path fill="#E30016" d="M605.043 512.034v.884c0 6.567 13.382 20.178 17.311 24.83 2.979 3.527 6.93 7.885 9.507 11.418 2.724 3.735 7.314 7.892 9.725 11.493-1.057-.282-20.2-16.858-23.041-19.1-5.156-4.069-17.784-17.148-24.995-17.148h-1.473c-4.33 0-10.567 5.249-13.04 7.59-3.53 3.345-7.935 6.178-11.345 9.579-2.442 2.435-8.517 7.398-11.391 9.531-3.828 2.84-7.722 7.1-11.376 9.548.28-1.049 16.858-20.187 19.1-23.042 4.261-5.424 17.148-17.471 17.148-25.288v-.295c0-4.929-4.758-10.556-7.29-13.34-3.352-3.684-6.222-7.789-9.58-11.343-3.368-3.564-6.192-7.824-9.585-11.338-2.19-2.267-7.843-8.953-9.499-11.425 1.586.423 19.29 16.34 22.515 18.743 5.275 3.929 17.695 16.915 24.637 16.915h2.063c5.609 0 20.149-13.594 24.384-17.168 2.48-2.093 21.9-18.848 22.768-19.08-2.47 3.69-6.715 7.572-9.548 11.376-2.456 3.297-6.874 8.551-9.682 11.537-3.407 3.622-6.338 7.763-9.728 11.489-2.607 2.865-7.585 8.58-7.585 13.634m-70.557-64.685v2.352c0 2.479 1.04 3.736 1.473 5.587-1.79-.946-4.052-1.765-6.776-1.765-6.179 0-13.256 5.998-13.256 11.468v3.234c0 2.471 6.09 14.229 7.327 17.973 1.968 5.954 4.162 13.303 4.162 21.132v8.233c0 8.259-1.571 16.5-3.947 22.523-1.548 3.921-7.542 15.953-7.542 19.228v1.765c0 5.593 6.546 12.055 11.783 12.055h2.357c2.681 0 4.006-1.314 5.892-1.47-.548 2.046-1.473 2.752-1.473 5.88v2.94c0 5.545 7.107 11.173 13.55 11.173 3.726 0 13.806-5.555 17.97-7.056 5.62-2.026 13.082-4.41 20.622-4.41h13.55c6.962 0 15.35 2.504 20.585 4.446 4.204 1.56 13.85 7.02 18.006 7.02 6.984 0 13.55-6.279 13.55-12.937v-.882c0-2.438-1.303-4.483-1.767-6.469 1.312.877 4.04 1.765 6.187 1.765h2.062c4.76 0 11.783-6.415 11.783-10.88v-2.94c0-3.48-6.129-15.531-7.618-19.74-2.592-7.323-3.87-13.902-3.87-23.775v-6.469c0-5.905 2.29-17.201 4.123-21.17 1.37-2.961 2.382-5.914 3.832-8.818 1.049-2.1 3.533-6.604 3.533-9.411v-2.647c0-5.571-6.796-11.76-12.667-11.76-2.94 0-5.374.81-7.365 1.764.282-1.205 1.768-4.457 1.768-5.587v-1.764c0-6.158-6.598-12.937-12.667-12.937h-1.178c-2.779 0-15.05 5.998-18.817 7.387-5.637 2.08-14.133 4.374-21.836 4.374h-8.838c-6.103 0-18.172-2.285-22.198-4.306-2.692-1.351-16.437-7.455-19.044-7.455h-.589c-6.105 0-12.667 6.283-12.667 12.35"/>
</svg>