<svg xmlns="http://www.w3.org/2000/svg" viewBox="0 0 1024 1024" width="64" height="64">
  <path fill="#0A6BAF" d="M96 416c53.4 0 96.6 43.1 96.6 96.2 0 7.1-.9 14-2.2 20.4-30.5-.9-105.5-4.9-99.5-12.4 4.9-6.2 25.4-5.3 41.9-16.7 5.1-3.3-8-10.9-26.3-13.3-28.8-3.6-90-13.3-39.9-20.2 66.8-9.3-4.2-20.7-42.5-22 17.6-19.6 43.2-32 71.9-32"/>
  <path fill="#17A252" d="M179.1 561.3c-16.9 28.2-47.5 47.3-82.8 47.3-53.3 0-96.3-43-96.3-96.1 0-23.5 8.4-45.2 22.6-61.9 55.3 5.8 54.8 9.5 22 15.5-43.9 8.7-19.1 16.5 9.3 22.9 14.4 3.1 29.3 5.1 38.2 11.5 8.2 5.8-39.7 7.1-45 20-4.3 9.6 50.1 30.2 132 40.8"/>
</svg>