<svg xmlns="http://www.w3.org/2000/svg" viewBox="0 0 1024 1024" width="64" height="64">
  <path fill="#E30016" d="m50.1 435-.1 22.3-.9.6-.9.6-.7.5-.8.5-.8.7-.8.6-.8.6-.8.6-.8.6-.7.6-.9.8-.7.7-.7.7-.7.7-.9.7-.7.7-.7.8-.6.7-.6.8-.7.7-.7.8-.6.8-.6.8-.7.8-.5.8-.6.8-.6.8-.6.8-.5.9-.5.9-.6.9-.5.8-.5.9-.5.9-.5.9-.2.9-.4.9-.4.9-.4 1-.4.9-.4.9-.3 1-.3 1-.3 1-.3 1-.3 1-.3 1-.2 1-.2 1-.3 1-.2 1-.2 1-.2 1-.2 1-.1 1.1-.1 1-.2 1.1-.1 1-.1 1.1-.1 1-.1 1v4.7l.1 1.5.1 1.5.1 1.5.2 1.5.2 1.5.2 1.4.3 1.5.3 1.4.3 1.4.4 1.4.3 1.4.4 1.4.5 1.4.5 1.4.5 1.4.5 1.3.6 1.4.6 1.3.6 1.3.7 1.3.7 1.3.7 1.2.7 1.3.7 1.2.8 1.2.8 1.2.4.6.4.5.5.6.4.5.4.6.4.6.4.6.5.5.5.6.4.5.5.5.5.6.5.5.5.5.5.5.6.5.5.6.5.5.5.5.5.5.6.5.5.5.6.5.5.5.6.5.5.4.6.5.6.4.5.4.6.4.6.4.6.4 1.2.8 1.2.8 1.2.8 1.2.6 1.3.7 1.3.7 1.3.6 1.3.6 1.3.6 1.3.5 1.4.6 1.4.5 1.4.5 1.4.5 1.5.4 1.4.4 1.4.4 1.5.3 1.5.2 1.5.3 1.5.2v-25.7H57.7l-.4-.1-.4-.1-.3-.1-.3-.1-.3-.2-.4-.1-.3-.1-.3-.2-.4-.2-.3-.2-.3-.2-.3-.2-.2-.2-.3-.3-.2-.3-.2-.2-.2-.3-.2-.3-.2-.3-.2-.3-.2-.4-.1-.3-.2-.4-.1-.3-.1-.3-.1-.3-.1-.5v-21.5l.1-.3-.1-.4.1-.4.1-.4.2-.3.1-.3.2-.3.2-.3.2-.3.2-.3.2-.3.2-.2.2-.2.3-.3.2-.2.3-.3.3-.2.3-.2.4-.2.3-.2.3-.2.4-.1.3-.1.3-.1.3-.1.4-.1h56.3l.4.1.4.1.4.1.3.1.3.1.3.2.3.2.3.2.3.2.3.2.3.3.3.2.2.3.2.2.3.2.2.3.2.3.2.3.2.3.2.3.2.3.1.3.1.4.1.4.1.4.1.3.1.3v21.2l-.1.3-.1.5-.1.3-.1.3-.1.3-.1.4-.2.3-.2.4-.2.3-.2.3-.2.3-.2.3-.3.2-.2.3-.2.3-.3.2-.3.2-.3.2-.3.2-.3.2-.3.2-.3.1-.3.1-.3.2-.4.1-.4.1-.4.1-.4.1H95v25.7l1.4-.2 1.4-.3 1.4-.2 1.4-.3 1.4-.4 1.5-.4 1.3-.4 1.3-.4 1.4-.5 1.3-.5 1.3-.6 1.3-.5 1.3-.6 1.3-.6 1.3-.6 1.2-.6 1.2-.7 1.2-.6 1.2-.7 1.2-.7 1.1-.8 1.1-.8 1.1-.8 1.1-.9 1.1-.9.5-.4.6-.4.5-.5.5-.5.5-.5.5-.5.5-.5.5-.5.5-.5.5-.5.5-.5.5-.5.5-.5.5-.5.5-.5.5-.5.4-.5.5-.6.4-.5.5-.5.8-1.1.8-1.1.9-1.1.7-1.1.7-1.1.8-1.2.7-1.2.7-1.2.6-1.2.7-1.2.6-1.3.6-1.3.6-1.3.5-1.3.5-1.3.5-1.3.5-1.4.4-1.4.4-1.3.3-1.4.3-1.4.3-1.4.3-1.4.2-1.4.3-1.4.2-1.4.2-1.4.1-1.5.1-1.4h19.7v1l-.1 1-.1 1.1-.1 1-.1 1-.2 1-.1 1-.2 1.1-.2 1-.2 1.1-.2 1-.2 1-.2 1-.2 1-.2 1-.2 1-.2 1-.2 1-.3.9-.2 1-.3 1-.3 1-.3.9-.3 1-.3.9-.4 1-.3 1-.3 1-.4.9-.4 1-.4.9-.4.9-.4.9-.4 1-.5.9-.5.9-.4.9-.5.9-.5.9-.5.8-.5.9-.5.9-.6.8-.6.8-.5.9-.6.8-.6.9-.6.8-.6.8-.6.8-.6.8-.6.8-.6.8-.7.8-.7.7-.6.8-.7.8-.7.7-.7.7-.7.7-.1.8-.7.7-.7.7-.7.7-.7.7-.8.6-.7.6-.7.7-.7.6-.8.6-.8.7-.7.6-1 .8-.8.6-.8.6-.8.6-.8.6-.8.6-.8.6-.9.6-.9.6-.8.5-.9.5-.9.6-.9.5-.9.5-.9.5-.9.5-.9.5-.9.4-.9.5-.9.5-.9.4-1 .4-.9.4-.9.4-.9.4-1 .4-1 .3-1 .3-.9.4-1 .3-1 .3-1 .3-1 .3-1 .2-1 .3-1 .2-1 .3-1 .2-1 .2-1.1.2-1 .2-1 .2-1 .2-1.1.2-1 .2-1.1.1-1 .1-1.1.1-1.1.1-1.1.1-1 .1-1.1.1h-1l-1.1.1h-6.6l-1.1-.1-1.1-.1-1-.1-1.1-.1-1.1-.1-1.1-.1-1.1-.1-1.1-.2-1.1-.2-1-.1-1.1-.2-1.1-.2-1-.2-1.1-.3-1-.3-1-.2-1.1-.2-1-.3-1-.2-1-.3-1-.3-1-.3-1-.4-1-.4-1-.3-1-.4-.9-.5-1-.4-.9-.4-1-.4-.9-.5-.9-.4-.9-.5-.9-.4-.9-.5-.9-.5-.9-.5-.9-.5-.9-.6-.8-.6-.9-.5-.9-.5-.8-.6-.9-.6-.9-.5-.8-.6-.8-.6-.9-.6-.8-.6-.8-.6-.8-.6-.8-.6-.8-.7-.8-.7-.7-.6-.8-.7-.7-.6-.7-.7-.7-.7-.7-.7-.8-.8-.7-.7-.7-.7-.7-.8-.7-.7-.7-.8-.7-.8-.7-.7-.7-.9-.6-.7-.6-.8-.6-.9-.7-.8-.6-.8-.6-.8-.6-.8-.6-.9-.6-.9.1-1.3-.6-.9-.5-.9-.5-.9-.6-.9-.5-.9-.5-.9-.5-.9-.5-.9-.4-.9-.4-1-.5-.9-.4-1-.4-.9-.4-1-.4-1-.4-1-.4-1-.3-1-.3-1-.3-1-.3-1-.3-1-.3-1-.3-1-.3-1-.2-1-.2-1-.2-1-.2-1-.2-1-.2-1.1-.2-1-.3-1-.2-1-.2-1.1-.2-1-.1-1.1-.1-1.1-.1-1-.1-1.1-.1-1 .1-1.2V509l.1-1.6.1-1.6.1-1.5.2-1.5.2-1.6.2-1.6.2-1.5.3-1.5.3-1.5.3-1.6.4-1.5.4-1.5.4-1.5.4-1.4.4-1.5.5-1.4.5-1.4.6-1.4.5-1.5.7-1.4.6-1.4.6-1.3.7-1.4.7-1.4.7-1.3.7-1.3.8-1.4.8-1.2.8-1.3.8-1.3.9-1.2.9-1.2.9-1.2.9-1.2.9-1.2.9-1.1 1-1.2 1-1.1 1-1.1 1.1-1.1 1-1 .5-.6.6-.5 1.1-1 1.1-1.1 1.1-1 1.1-1 1.1-.9 1.1-1 1.2-.9 1.2-1 1.2-.8 1.2-.9 1.2-.9 1.3-.8 1.2-.8 1.3-.7 1.3-.8 1.3-.7 1.4-.7 1.4-.7 1.3-.6 1.3-.7zm31 108h8v-19h-8v19zm70.3-34.1-.1-1.5-.2-1.4-.2-1.5-.2-1.4-.2-1.5-.2-1.5-.3-1.4-.3-1.4-.3-1.4-.3-1.4-.4-1.3-.4-1.4-.5-1.4-.5-1.3-.5-1.3-.6-1.3-.6-1.3-.6-1.2-.6-1.3-.7-1.3-.7-1.2-.7-1.2-.7-1.2-.7-1.2-.8-1.1-.8-1.1-.8-1.1-.9-1.1-.4-.6-.4-.5-.5-.5-.5-.6-.4-.5-.5-.5-.5-.5-.5-.6-.4-.5-.5-.5-.5-.5-.5-.6-.5-.4-.5-.5-.5-.4-.6-.5-.5-.5-.6-.5-.5-.4-.6-.5-.5-.4-.5-.4-1.1-.8-1.1-.8-1.1-.8-1.2-.8-1.1-1.1-1.2-.7-1.2-.8-1.2-.7-1.2-.7-1.3-.7-1.3-.6-1.3-.6-1.3-.6-1.3-.5-1.3-.5-1.4-.5-1.4-.5-1.4-.4-1.4-.3-1.4-.4-1.5-.3-1.2-.2-1.4-.3-1.5-.2-1.4-.2v26.6h19.2l.4.1.4.1.4.1.3.1.3.1.3.2.3.2.3.2.3.2.3.2.3.2.3.3.2.3.2.2.3.3.2.3.2.3.2.3.2.4.2.3.2.3.1.3.1.4.1.4.1.4.1.3.1.4v21.3l-.1.4-.1.4-.1.4-.1.3-.1.3-.1.4-.2.3-.2.4-.2.3-.2.2-.2.3-.2.3-.3.3-.2.3-.2.3-.3.2-.3.2-.3.2-.3.2-.3.2-.3.2-.3.2-.3.1-.3.1-.4.1-.4.1-.4.1-.4.1H57.9l-.4-.1-.4-.1-.3-.1-.3-.1-.3-.1-.4-.1-.3-.2-.5-.2-.4-.2-.3-.2-.2-.2-.3-.2-.2-.2-.3-.3-.2-.3-.2-.3-.2-.3-.2-.3-.2-.2-.3-.3-.2-.4-.1-.3-.2-.4-.1-.3-.1-.3-.1-.4-.1-.4v-22.1l.1-.3.1-.4.1-.4.1-.4.2-.3.1-.3.2-.3.2-.4.2-.3.2-.3.2-.3.2-.3.2-.2.3-.3.2-.3.3-.2.3-.2.3-.2.4-.2.3-.2.3-.2.4-.1.3-.1.3-.1.5-.1.4-.1h17.8v-46.2l1.3-.2 1.3-.1 1.2-.1 1.3-.1 1.4-.1 1.3-.1H90l1.1.2h1l1.1.1 1.1.1 1.1.1 1 .1 1.1.1 1 .2 1.1.2 1 .2 1.1.2 1 .2 1 .2 1 .2 1 .3 1 .3 1 .2 1 .2 1 .3 1 .3 1 .3 1 .3 1 .3.9.3 1 .3.9.3 1 .4.9.4 1 .3.9.4.9.5.9.4.9.5.9.4.9.5.9.5.9.5.9.4.9.5.9.5.9.6.9.4.8.6.9.6.9.5.8.6.8.6.8.6.8.5.8.6.4.7.8.6.8.6.8.7.7.6.7.6.8.7.7.7.7.7.7.7.7.7.7.7.7.7.7.7.7.8.7.7.6.7.7.8.7.7.6.8.6.8.7.7.6.9.6.8.6.8.6.8.5.8.6.8.6.8.6.9.5.8.6.9.5.8.5.8.5.9.5.9.5.9.4.9.5.9.5.9.4.9.4.9.4 1 .4.9.4 1 .4.9.3 1 .4.9.3 1 .4.9.3 1 .4 1 .2 1 .3 1 .3 1 .3.9.3 1 .2 1 .2 1.1.2 1 .2 1.1.2 1 .2 1.1.2 1 .2 1.1.1 1 .2 1 .1 1 .1 1.1.1 1.1.1 1.1.1 1.1.1 1v1.1l-19.6-.3zM81.1 501h8v-19h-8v19z"/>
</svg>