<svg xmlns="http://www.w3.org/2000/svg" viewBox="0 0 1024 1024" width="64" height="64">
  <path fill="#F9B71F" d="m171.395 391-16.182 22.1-78.598 102.362 47.39 37.222 33.52-43.038h98.248l-40.455 53.507-21.961 27.917c-1.156 1.163-9.247 10.469-11.56 12.795-3.467 2.326-6.934 5.816-10.402 8.142-5.78 4.653-11.558 6.98-17.338 10.47-41.61 19.774-94.78 10.468-127.144-26.754-34.676-40.712-35.832-96.546-3.468-138.42L73.147 391h98.248zm100.422 30.2-66.064 85.885-28.314-22.354 48.37-63.53h46.008zm-61.345 0-42.331 55.684-29.397-22.041 27.045-33.643h44.683z"/>
</svg>