<svg xmlns="http://www.w3.org/2000/svg" viewBox="0 0 1024 1024" width="64" height="64">
  <path fill="#D82321" d="M0 511.676C0 436.192 61.192 375 136.676 375c75.484 0 136.675 61.192 136.675 136.676 0 75.484-61.191 136.675-136.675 136.675C61.192 648.351 0 587.16 0 511.676zm236.303-10.307h-70.54l-28.858-28.857-37.332 37.331 37.332 37.332 28.857-28.857h45.577c-3.206 38.247-35.5 68.25-74.663 68.25-41.454 0-74.893-33.438-74.893-74.892 0-41.454 33.439-74.893 74.893-74.893 30.002 0 55.883 17.636 67.792 43.287l27.025-.23c-13.283-39.621-50.844-68.25-94.817-68.25-55.196 0-100.086 44.89-100.086 100.086S81.48 611.76 136.676 611.76s100.085-44.89 100.085-100.085c0-3.665-.229-7.1-.458-10.307z"/>
</svg>