<svg xmlns="http://www.w3.org/2000/svg" viewBox="0 0 1024 1024" width="64" height="64">
  <path fill="#D61919" d="M186.344 552.382c2.23-9.301 4.164-17.774 6.278-26.198 2.792-11.105 5.535-22.243 8.69-33.264 1.405-4.85-.545-6.24-4.758-6.24-13.48-.033-26.962.033-40.427-.066-5.37-.05-5.93 4.088-6.872 7.68-4.709 17.823-9.252 35.68-13.878 53.537-1.24 4.782-2.181 9.681-3.866 14.298-2.23 6.173.347 7.464 5.914 7.448 24.253-.166 48.506-.083 72.776-.083h41.005c-1.553 3.64-2.33 6.338-3.75 8.655-27.012 44.286-66.167 67.853-118.291 66.595-51.827-1.258-90.073-26.347-114.491-71.758-15.794-29.342-17.942-60.803-10.706-93.14 1.437-6.389 4.46-8.656 11.119-8.474 17.297.464 34.595.265 51.893.083 5.253-.05 6.724 1.539 5.253 6.802-7.434 26.611-14.637 53.305-21.923 79.983-.364 1.291-.628 2.615-1.025 3.906-1.586 5.03-.43 7.53 5.502 7.397 12.804-.28 25.608-.182 38.411 0 4.56.083 6.824-1.572 8.046-6.106 7.6-28.2 15.613-56.302 23.08-84.551 1.504-5.71 4.197-7.514 9.814-7.48 31.01.198 62.003.132 93.013.099a9.414 9.414 0 0 0 8.476-4.891 9.447 9.447 0 0 0-.43-9.789c-.925-1.44-3.767-2.234-5.75-2.267-8.987-.215-17.974-.05-26.962-.033l-173.85.066h-14.77c1.982-4.104 2.94-6.504 4.212-8.722 34.86-60.604 112.64-83.458 174.628-51.32 54.106 28.035 81.994 87.829 68.876 147.622-2.362 10.707-2.362 10.74-13.134 10.757-17.975.016-35.95 0-53.925-.033-2.379 0-4.758-.282-8.161-.497"/>
</svg>