<svg xmlns="http://www.w3.org/2000/svg" viewBox="0 0 1024 1024" width="64" height="64">
  <path fill="#E50113" d="M119.048 631.096C53.3 631.096 0 577.796 0 512.048S53.3 393 119.048 393c65.749 0 119.048 53.3 119.048 119.048 0 65.749-53.3 119.048-119.048 119.048zm0-14.207c58.173 0 105.33-46.939 105.33-104.84 0-57.903-47.157-104.842-105.33-104.842-58.172 0-105.33 46.94-105.33 104.841 0 57.902 47.158 104.84 105.33 104.84zm46.18-102.523c6.252-.143 11.51-.356 11.51-8.233-8.455-20.229-23.375-4.756-15.915 5.89 1.421.78 2.913 1.562 4.405 2.343zm-28.844 40.95c1.847-4.896 2.272-7.095.212-11.213-3.41-.211-5.684.64-8.667 1.278-2.132 0-22.877-1.348-24.938.71-3.552 9.226 7.105 12.916 14.281 14.408 5.541-.569 14.777-.496 19.112-5.182zm-60.319-35.982c3.765-1.207 6.962-2.414 9.023-6.175 0-5.04-2.487-9.086-5.329-12.066-4.973-.355-11.652 4.187-11.652 9.227 1.706 2.555 4.335 7.522 7.958 9.014zm92.928-40.598c11.369 6.458 26.572 19.802 31.9 32.719 0 4.756-1.562 12.633-8.029 12.633-6.962-3.052-7.246-.85-11.793 4.472-4.688 9.44-3.836 15.97-2.201 26.545.426 7.452 2.486 15.258 2.486 22.996-3.908 4.329-10.728 10.078-16.128 11.142-1.634-1.633-1.278-2.768-1.634-4.259-.142-15.188-.285-30.304-.355-45.423-1.137-3.407-5.116-12.563-9.378-10.433-.355.711-.64 1.492-.924 2.272-.142 11.568.639 25.124-6.04 35.63-11.011 8.87-26.925 10.22-39.998 7.097-14.636-6.744-15.132-9.795-17.904-24.983-.142-5.252-.284-10.506-.355-15.758-.71-.639-1.421-1.278-2.131-1.846-7.673 1.918-6.82 15.97-8.17 22.571-3.908 12.422-12.434 24.558-24.086 31.372h-2.486c-4.263-2.84-2.913-19.52-1.776-22.642 7.602-6.813 7.602-6.813 9.164-8.73 7.958-14.195 10.302-24.912-2.344-36.055-8.525-4.259-10.373 6.6-17.477 3.905-4.192-5.395-5.186-6.176-2.487-11.641 10.515-12.066 28.135-30.945 45.256-30.945.995.496 1.99.993 2.985 1.56 2.841 4.613 5.897 8.731 16.34 25.907 1.421 7.24-1.349 14.407 1.847 21.718 8.953 4.471 22.806 3.69 32.753.852 6.181-4.97 4.334-10.362 4.12-17.248 2.63-11.355 9.664-24.201 17.478-32.363 4.974-3.337 5.542-2.982 11.367-1.065zm-44.962 2.12c6.229-3.604 8.778-10.53 7.22-16.892-3.398-3.393-17.838-1.555-22.085-.211-1.982 6.077 2.265 15.195 8.849 18.022 3.184-.211 3.184-.211 6.016-.918zm71.14-27.918c3.753 1.484 3.753 1.484 4.743 2.191v1.696c-5.592 3.463-11.042 5.725-16.775 8.129-10.123.494-21.874-4.737-29.873 1.272-6.795 9.4-12.742 19.79-19.538 29.474-5.946 3.958-8.21 4.17-15.006 5.158-17.767-4.099-19.042-17.668-27.465-32.3l-1.911-2.12c-9.84-2.898-23.36.07-32.916 1.697-2.832 0-5.38.07-7.574-.707-4.955-6.644-2.478-11.805 1.84-17.319 1.416-.351 1.416-.351 24.068-1.059 8.848-1.06 18.263-1.413 27.606-2.827 5.38-2.544 4.46-7.845 6.3-12.298 6.937-4.878 20.811-3.464 25.058 5.017.92 5.09.142 6.15 5.523 7.634 19.183.495 36.526 2.122 55.92 6.362z"/>
</svg>