<svg xmlns="http://www.w3.org/2000/svg" viewBox="0 0 1024 1024" width="64" height="64">
  <path fill="#231916" d="m428.3 584.1 27.9 34.2V592c0-2.8-.3-4.6-.9-5.2-.8-.9-2.1-1.4-3.9-1.4h-1.6v-1.2h15.9v1.2H464c-1.9 0-3.3.6-4.1 1.7-.5.7-.7 2.4-.7 4.9v38.5H458l-30.1-36.7v28.1c0 2.8.3 4.6.9 5.2.9.9 2.2 1.4 3.9 1.4h1.6v1.2h-15.9v-1.2h1.6c1.9 0 3.3-.6 4.1-1.7.5-.7.7-2.4.7-4.9v-31.7c-1.3-1.5-2.3-2.6-3-3.1-.7-.5-1.7-1-3-1.4-.6-.2-1.6-.3-3-.3v-1.2h12.5zm310.7 0 27.9 34.2V592c0-2.8-.3-4.6-.9-5.2-.8-.9-2.1-1.4-3.9-1.4h-1.6v-1.2h15.9v1.2h-1.6c-1.9 0-3.3.6-4.1 1.7-.5.7-.7 2.4-.7 4.9v38.5h-1.2l-30.1-36.7v28.1c0 2.8.3 4.6.9 5.2.9.9 2.2 1.4 3.9 1.4h1.6v1.2h-15.9v-1.2h1.6c1.9 0 3.3-.6 4.1-1.7.5-.7.7-2.4.7-4.9v-31.7c-1.3-1.5-2.3-2.6-3-3.1-.7-.5-1.7-1-3-1.4-.6-.2-1.6-.3-3-.3v-1.2H739zm200.4-1c5.9 0 11 2.2 15.3 6.7 4.3 4.5 6.5 10 6.5 16.7 0 6.9-2.2 12.6-6.5 17.2-4.3 4.5-9.6 6.8-15.8 6.8-6.2 0-11.5-2.2-15.7-6.7-4.2-4.4-6.4-10.2-6.4-17.2 0-7.2 2.4-13.1 7.4-17.6 4.2-4 9.3-5.9 15.2-5.9zm-266.7 0 1 15.4h-1c-1.4-4.6-3.4-7.9-6-10-2.6-2-5.7-3-9.3-3-3 0-5.8.8-8.2 2.3-2.5 1.5-4.4 4-5.8 7.3-1.4 3.3-2.1 7.5-2.1 12.5 0 4.1.7 7.7 2 10.7 1.3 3 3.3 5.3 6 6.9 2.7 1.6 5.7 2.4 9.1 2.4 3 0 5.6-.6 7.9-1.9 2.3-1.3 4.8-3.8 7.5-7.5l1 .7c-2.3 4-5 7-8 8.9-3.1 1.9-6.7 2.8-10.9 2.8-7.6 0-13.5-2.8-17.6-8.4-3.1-4.1-4.7-9-4.7-14.6 0-4.5 1-8.7 3.1-12.5 2-3.8 4.9-6.7 8.5-8.8s7.5-3.1 11.8-3.1c3.3 0 6.6.8 9.8 2.4.9.5 1.6.7 2 .7.6 0 1.1-.2 1.6-.6.6-.6 1-1.4 1.2-2.5h1.1zm-116.9 0c5.9 0 11 2.2 15.3 6.7 4.3 4.5 6.5 10 6.5 16.7 0 6.9-2.2 12.6-6.5 17.2-4.3 4.5-9.6 6.8-15.8 6.8-6.2 0-11.5-2.2-15.7-6.7-4.2-4.4-6.4-10.2-6.4-17.2 0-7.2 2.5-13.1 7.4-17.6 4.2-4 9.3-5.9 15.2-5.9zm261.5 0 1.2 14.3h-1.2c-1.2-3.6-2.7-6.3-4.6-8.1-2.7-2.6-6.2-3.9-10.5-3.9-5.8 0-10.3 2.3-13.3 6.9-2.5 3.9-3.8 8.4-3.8 13.8 0 4.3.8 8.3 2.5 11.8 1.7 3.6 3.9 6.2 6.6 7.8 2.7 1.7 5.5 2.5 8.4 2.5 1.7 0 3.3-.2 4.9-.6 1.6-.4 3.1-1 4.6-1.9v-13.1c0-2.3-.2-3.8-.5-4.5-.3-.7-.9-1.2-1.6-1.6-.7-.4-2-.6-3.9-.6v-1.3h17.7v1.3h-.8c-1.8 0-3 .6-3.6 1.7-.5.8-.7 2.5-.7 4.9v13.9c-2.6 1.4-5.1 2.4-7.7 3-2.5.6-5.3 1-8.4 1-8.8 0-15.6-2.8-20.1-8.4-3.4-4.2-5.2-9.1-5.2-14.6 0-4 1-7.8 2.9-11.5 2.3-4.3 5.4-7.7 9.4-10 3.4-1.9 7.3-2.9 11.9-2.9 1.7 0 3.2.1 4.5.4 1.4.3 3.3.9 5.8 1.8 1.3.5 2.1.7 2.5.7.4 0 .8-.2 1.1-.6.3-.4.5-1.2.6-2.3h1.3zm165.9 1v1.2h-1.8c-1.9 0-3.3.6-4.1 1.8-.6.8-.8 2.5-.8 5v19.7c0 1.8.2 3.8.5 6 .3 2.3.9 4 1.8 5.3.9 1.3 2.1 2.3 3.7 3.1 1.6.8 3.6 1.2 6 1.2 3 0 5.7-.6 8.1-1.9 2.4-1.3 4-2.9 4.9-5 .9-2 1.3-5.4 1.3-10.2V592c0-2.8-.3-4.6-.9-5.3-.9-1-2.2-1.5-3.9-1.5h-1.7V584h16.3v1.2h-1.7c-1.8 0-3.2.7-4.2 2.2-.5.7-.7 2.3-.7 4.8v18.4c0 4.5-.5 8.1-1.4 10.6-.9 2.5-2.7 4.7-5.4 6.4-2.7 1.8-6.3 2.7-11 2.7-5 0-8.8-.9-11.4-2.6-2.6-1.7-4.5-4-5.5-6.9-.7-2-1.1-5.7-1.1-11.2v-17.7c0-2.8-.4-4.6-1.2-5.5-.8-.9-2-1.3-3.8-1.3h-1.7v-1.2h19.7zm-96.4 0v1.2h-1.7c-1.1 0-2.1.3-3.1.8-.7.4-1.2.9-1.5 1.6-.3.7-.4 2.2-.4 4.4v13h21.4v-13c0-2.3-.1-3.8-.4-4.6-.2-.6-.7-1-1.4-1.4-1-.5-2-.8-3.1-.8H895v-1.2h19.7v1.2h-1.6c-1.1 0-2.1.3-3.1.8-.7.4-1.2.9-1.5 1.6-.3.7-.4 2.2-.4 4.4v29.2c0 2.3.1 3.8.4 4.5.2.6.7 1 1.4 1.4 1 .5 2 .8 3.1.8h1.6v1.2H895V628h1.6c1.9 0 3.2-.5 4.1-1.6.6-.7.8-2.4.8-5.1v-13.8h-21.4v13.8c0 2.3.1 3.8.4 4.5.2.6.7 1 1.4 1.4 1 .5 2 .8 3.1.8h1.7v1.2H867V628h1.6c1.9 0 3.3-.5 4.1-1.6.5-.7.8-2.4.8-5.1v-29.2c0-2.3-.1-3.8-.4-4.6-.2-.6-.7-1-1.4-1.4-1-.5-2-.8-3.1-.8H867v-1.2h19.8zm-22.3 0-29.8 42.6h18.6c2.9 0 5-.6 6.6-1.9 1.5-1.2 2.9-3.8 4.1-7.6l1.1.2-2.1 12h-37v-1.2l29.1-41.4h-14.5c-2.4 0-4.2.3-5.2.8-1.1.5-1.9 1.3-2.5 2.3-.6 1-1.1 2.8-1.6 5.6H830l.9-11.3h33.6zm-378.2 0v1.2h-1.6c-1.1 0-2.1.3-3.1.8-.7.4-1.2.9-1.5 1.6-.3.7-.4 2.2-.4 4.4V606c.5-.4 2-1.8 4.7-4.2 6.7-6.1 10.8-10.1 12.2-12.1.6-.9.9-1.7.9-2.3 0-.5-.2-1-.7-1.4-.5-.4-1.3-.6-2.4-.6h-1.1v-1.2h16.9v1.2c-1 0-1.9.2-2.7.4-.8.2-1.8.7-3 1.4-1.1.7-2.4 1.7-4 3.1l-.3.3c-.5.4-2.8 2.7-6.9 6.9l-7 6.9 17 16.6c2.8 2.7 5.2 4.6 7.1 5.6 2 1 3.9 1.6 5.9 1.7v1.2h-21.9v-1.2c1.3 0 2.3-.2 2.8-.7.6-.4.9-.9.9-1.5 0-.5-.1-1-.3-1.4-.2-.4-.9-1.2-2.1-2.4l-15.9-15.5v14.6c0 2.3.1 3.8.4 4.5.2.6.7 1 1.4 1.4 1 .5 2 .8 3.1.8h1.6v1.2h-19.6v-1.2h1.6c1.9 0 3.3-.5 4.1-1.6.5-.7.8-2.4.8-5.1v-29.3c0-2.3-.1-3.8-.4-4.6-.2-.5-.7-1-1.4-1.4-1-.5-2-.8-3.1-.8h-1.6v-1.2h19.6zm128.8 0 .4 10h-1.2c-.6-2.1-1.3-3.7-2.1-4.7s-1.8-1.7-2.9-2.2c-1.1-.4-2.9-.7-5.3-.7h-10.2v17.8h8.4c1.9 0 3.3-.4 4.2-1.3.9-.8 1.5-2.5 1.8-5h1.3v15.3h-1.3c0-1.8-.3-3.1-.7-3.9-.4-.8-1.1-1.4-1.8-1.9-.8-.4-2-.6-3.5-.6h-8.4v14.2c0 2.3.1 3.8.4 4.5.2.6.7 1 1.4 1.4 1 .5 2 .8 3.1.8h1.7v1.2h-19.9v-1.2h1.6c1.9 0 3.3-.5 4.2-1.6.5-.7.8-2.4.8-5.1v-29.3c0-2.3-.2-3.8-.4-4.5-.2-.6-.7-1-1.4-1.4-1-.5-2-.8-3.1-.8h-1.6v-1.2h34.5zm86.6-1 15.9 37.7c1.3 3 2.4 5 3.5 5.9 1 .9 2.5 1.4 4.4 1.5v1.2h-18.1v-1.2c1.8-.1 3.1-.4 3.7-.9.6-.5 1-1.1 1-1.9 0-1-.4-2.5-1.4-4.6l-2.8-6.5h-17.7l-3.1 7.2c-.8 1.8-1.1 3.1-1.1 3.9 0 .7.3 1.3 1 1.8s2.1.9 4.3 1v1.2h-14.4v-1.2c1.9-.3 3.1-.8 3.7-1.3 1.1-1.1 2.4-3.2 3.8-6.5l16.1-37.3h1.2zm-308.5 0 15.9 37.7c1.3 3 2.4 5 3.5 5.9 1 .9 2.5 1.4 4.4 1.5v1.2h-18.1v-1.2c1.8-.1 3.1-.4 3.7-.9.6-.5 1-1.1 1-1.9 0-1-.5-2.5-1.4-4.6l-2.8-6.5h-17.7l-3.1 7.2c-.8 1.8-1.1 3.1-1.1 3.9 0 .7.3 1.3 1 1.8s2.1.9 4.3 1v1.2h-14.4v-1.2c1.9-.3 3.1-.8 3.7-1.3 1.1-1.1 2.4-3.2 3.8-6.5l16.1-37.3h1.2zm-49.4 1c3.7 0 6.7.3 8.9.8 3.4.8 6 2.2 7.7 4.3 1.8 2 2.7 4.4 2.7 7 0 2.3-.7 4.3-2.1 6.1-1.4 1.8-3.5 3.1-6.2 4 3.2.7 5.5 1.7 7.1 3.2 2.2 2 3.3 4.6 3.3 7.5 0 2.3-.7 4.4-2.2 6.5-1.4 2.1-3.4 3.6-5.9 4.5-2.5.9-6.3 1.4-11.5 1.4H324v-1.2h1.7c1.9 0 3.3-.6 4.1-1.8.5-.8.8-2.4.8-5v-29.3c0-2.8-.3-4.6-1-5.3-.9-1-2.2-1.5-3.9-1.5H324v-1.2h19.8zm211.4 1.4c-4.1 0-7.3 1.5-9.8 4.5-3.1 3.7-4.6 9.2-4.6 16.5 0 7.4 1.6 13.1 4.7 17.1 2.4 3 5.6 4.5 9.6 4.5 4.3 0 7.8-1.7 10.5-5 2.8-3.3 4.2-8.6 4.2-15.7 0-7.8-1.5-13.5-4.6-17.4-2.3-3-5.7-4.5-10-4.5zm383.6 0c-4.1 0-7.3 1.5-9.8 4.5-3.1 3.7-4.6 9.2-4.6 16.5 0 7.4 1.6 13.1 4.7 17.1 2.4 3 5.6 4.5 9.6 4.5 4.3 0 7.8-1.7 10.5-5 2.8-3.3 4.2-8.6 4.2-15.7 0-7.8-1.5-13.5-4.6-17.4-2.3-3-5.7-4.5-10-4.5zm-595.7 21.8c-1.4 0-2.6 0-3.6.1-1 0-1.8.1-2.4.2v18.6c2.6.6 5.2.9 7.7.9 4.1 0 7.2-.9 9.3-2.7 2.1-1.8 3.2-4.1 3.2-6.7 0-1.8-.5-3.5-1.5-5.1-1-1.6-2.5-2.9-4.7-3.8-2.1-1.1-4.8-1.5-8-1.5zm47.6-13.8-8 18.3h15.7l-7.7-18.3zm308.6 0-8 18.3H707l-7.7-18.3zm-356.1-7.1c-2.3 0-4.3.2-6.1.7v17.4c.8.2 1.8.3 2.9.4 1.1.1 2.2.1 3.5.1 3.3 0 5.8-.4 7.4-1.1 1.7-.7 2.9-1.8 3.8-3.2.9-1.4 1.3-3 1.3-4.7 0-2.7-1.1-4.9-3.3-6.8-2.2-1.9-5.4-2.8-9.5-2.8z"/>
  <path fill="#E50113" d="M8 382.3v99.3s25.2-75.8 97.2-99.3H8z"/>
  <path fill="#004381" d="M147.2 382.1s73.7-23.9 108.9 31.7c32 50.5-15.7 94.6-15.7 94.6s22.8 13.4 31.4 40.8c9.2 29.5 3.2 72-47.6 92.6-13.8 5.7-39.5 5.7-39.5 5.7H8v-80.1s27.3 43 82.5 50 105-33.3 112.5-56.4c0 0-19.8 22-33.7 27.9 0 0 28.9-25.3 33.7-54.3 0 0-22.5 46.2-56.8 56.4 0 0 47.1-34.9 49.8-67.7 0 0-3.2 4.8-6.4 7 0 0 6.4-23.6-.5-42.4 0 0-1.1 51.6-23.6 59.6 0 0 20.3-22 11.8-44.6 0 0-18.2 57.5-71.2 50.5s-67.2-85-28.4-125.7c33.7-35.4 69.5-45.6 69.5-45.6"/>
</svg>