<svg xmlns="http://www.w3.org/2000/svg" viewBox="0 0 1024 1024" width="64" height="64">
  <path fill="#E50113" d="M88.297 601.087C43.634 600.72 6.807 567.47.844 524.362h58.738v-74.519c-22.236 9.618-38.46 28.998-36.28 54.671h9.246v-10.337H48.36v24.665H1.005a79.055 79.055 0 0 1-.999-5.653C0 512.806 0 512.423 0 512.04c0-44.796 33.088-81.872 76.158-88.115v58.572h74.528c-9.58-22.316-28.891-38.598-54.474-36.408v9.275h10.3v15.87H81.936v-47.52a69.657 69.657 0 0 1 3.26-.63 86.622 86.622 0 0 1 3.848-.084c44.793 0 81.86 33.074 88.114 76.134h-58.65v74.701c22.236-9.618 38.46-28.998 36.281-54.671h-9.247V529.5h-15.811v-24.664h47.351c.401 1.874.729 3.742.99 5.604.009.534.015 1.068.015 1.602 0 44.803-33.088 81.879-76.158 88.122v-59.166H27.623c9.58 22.314 28.89 38.599 54.474 36.408v-9.278h-10.3v-15.867h24.575v47.52a78.623 78.623 0 0 1-8.075 1.305zm-11.974-76.522h25.441v-25.043H76.323v25.043z"/>
</svg>