<svg xmlns="http://www.w3.org/2000/svg" viewBox="0 0 1024 1024" width="64" height="64">
  <path fill="#B81C22" d="M144.4 367.6c79.7 0 144.4 64.6 144.4 144.3s-64.6 144.4-144.4 144.4S0 591.7 0 512c0-79.7 64.6-144.4 144.4-144.4zM31.6 512c0 56.2 41.4 103.8 97 111.7v-53h-24.8c-16.2 0-29.3-13.1-29.3-29.3v-58.7c0-16.2 13.1-29.3 29.3-29.3h24.8v-53c-55.7 7.8-97 55.4-97 111.6zm128.5-111.7v53H185c16.2 0 29.3 13.2 29.3 29.3v58.6c0 16.2-13.1 29.3-29.3 29.4h-24.9v53c61.7-8.7 104.6-65.8 95.9-127.5-7-49.7-46.1-88.8-95.9-95.8zm18.1 84.6h-67.7c-2.4 0-4.4 1.9-4.5 4.3v45.3c0 2.4 1.9 4.4 4.3 4.5h67.9c2.4 0 4.4-1.9 4.5-4.3v-45.3c0-2.4-2-4.5-4.5-4.5z"/>
  <path fill="#231815" d="M629.4 523.5h-3.3c-3.3 5.2-13 14-18.8 16.2-10.1-8-22.7-12.2-35.7-17.6h-22.2c-3.3-1.3-12.1-2.3-16.2-3.2v5.9c2.6 1.8 4 7.3 3.9 11.8-28.7-1-20-104-7.8-118.4 1.7 1 1 .2 2 2 1.5 4.4-1.8 12.6-3.3 16.2-3.1 7.7-3.1 58.1 0 62.4h.7c.5-1.3.9-2.6 1.3-3.9h.7c-.3 6 1 17.3 4.6 19.6 2.6-2.1 9.3.1 12.3-2 6.2-4.2 30.7-27.3 31.8-34.5-.4-.2-.9-.4-1.3-.7-3.3 2.6-27.2 22.1-33.2 17.6 1.7-16.2 12.9-23.4 17.6-35.1h-.7c-2.5 2.1-2.5 3.4-7.2 3.9 0-13.1 7-12.7 7.8-22.7-1.5-2.9.8-3.6-2-5.2-.5-.6-.9-1.3-1.3-2-2.5 1.8-4.6 3.3-8.5 3.9v-5.2l5.9-5.9c-.1-5.7-2.5-16-5.9-18.8-.4.2-.9.4-1.3.7.2 5.6-.1 9.9-2 13-.7.2-1.3.5-2 .7-.4-.2-.9-.4-1.3-.7-2-3.6-3.8-5.2-3.9-11.1 7-3.9 9.1-13.9 15.7-18.3 6.5-4.2 15.2-7.5 22.2-10.4 64.4-27.3 58.1 96.2 51.4 141.8zm314.3-144.3c1 5.5 4.7 8.2 6.5 12.3 6 14.2-.1 27.7-3.9 37.8-16.3 2-25 11.5-35.7 18.8.2.4.4.9.7 1.3 4.8 2 24.1 6.2 21.5 11.8.2 1.7.5 3.4.7 5.2-7.2 4.7-20.7 17.3-24.1 25.3 13.2 5.1 26 31.2 12.3 42.9v1.3c-.4-.2-.9-.4-1.3-.7-4.6-6.7-12.9-6.4-14.2-16.8 2.5-1.8 3.6-16.9 3.3-18.8-19.1.7-18.5 21.9-29.9 13-1.1-1-4.2-.7-5.6-2.1-1.7-2-1.8-5.7-4.1-8.9 2.6-4.1 2.1-6.5 4.9-10.1 7.5-9.6 18.9-19.3 26.9-28.9-.2-1-.5-1.7-.7-2.6-7.9.3-19.3-3.9-22.2-8.5l.7-7.2c13-7.7 32-34.1 41-46.8 4.4-6.4 5.9-14.2 12.3-18.3h10.9zm-490 78 5.9.7v.8c-1.4 4.9-3.6 5.9-3.9 12.4-3.4.2-6.5 1.9-8.5 4.6-4.9 5.4-8.7 37.7-13 46.8-4.7 9.7 2 21.4-2 27.3-4.9.9-6 3.6-11.1 4.6-.2-1.3-.5-2.6-.7-3.9-8.1-9-1.8-26.8-7.2-33.8-.4.2-.9.4-1.3.7-.1 11.9-1.1 23.8 2.6 31.3 1.8 3.6 5 4.3 5.9 9.7h-3.3c-10.1-20.1-7.2-45.5-13.7-70.2h-.7c-1.1.2-2.2.5-3.3.7.3 5.9-.8 7.8-6.5 7.8-4.7-3.1-11.8-4.4-16.2-7.8-11.1-8.5-20.2-34.1-17.6-51.4h3.3l15.7 15.7 3.9-.7 25.3-18.8c-.2-20.7.7-37.7 5.9-51.4h5.9c10.9 7.5 19.9 17.3 24.1 31.8 11.6-.5 21.5-7.8 35.7-3.9-.1 21.3-23 32.9-25.2 47zm123.7 61.1c10.8.1 32.3 5.1 37.1 3.2 26.8-15.3 9.8-121.5-9.1-132.7-17.5-10.4-49.6 8-54 16.9 4.9 2.4 7.5 8.5 9.1 14.2 8.2-.2 9.6-4.1 16.9-4.6 1 1.1 1.7 2.1 2.6 3.3-.5 9-6.7 14-9.7 20.7 7 3.8 16.5 16 16.2 27.9-3.3 1.1-4.4 3.2-2.6 5.9 7.7-6.5 14-19.6 19.6-27.9.4.2.9.4 1.3.7.7 1 1.3 1.7 2 2.6-1.1 12.9-13.4 22-20.2 29.9v4.6c4.1 2.5 6.3 5.7 12.3 6.5 4.4-6.9 5.4-13 9.1-22.1h.7c.2 13.7-4.2 20.3-7.2 29.9l9.7.7v7.2c-5.4 4.1-2.9 8.5-13.7 8.5-1.7-3.1-14.7-.2-20.2.7.1 1.3.1 2.6.1 3.9zm106.1-20.1c-4.1 0-4.9-.5-7.2-2v-13.6c11.8-1 13.2-18.8 17.6-27.9 10.1-21.5 19.6-49.3 34.5-67h3.3c3.8 5.5 9.8 7.5 11.1 15.7-7.4 3.8-19.9 7.9-24.1 15-9.3 15.4-35.2 59.6-35.2 79.8zm80.7-13.1c-.3-16.5 7.5-20.4 11.8-31.8h-3.9c-1.7 2.4-4.2 2.6-5.9 5.2-4.6 9.7-5.9 19.9-5.9 31.3h2c4.9-7.3 24 1 33.8-2.6 11.1-4 13.6-14.4 27.9-14.2v.7l-2 2c-.8 3.9-3.4 5.1-7.8 5.2-.7 6.7-8.1 14.5-11.8 19.5 7.4 8.1 33.7 11.4 44.3 17.6l-2 2v1.3c-11.6.6-24.3 7-35.7 2-5-2.3-7.9-7.7-17.6-7.8-4.9 9-18.1 22.5-31.3 22.7-5.4-3.3-9.3-5.1-13.7-9.1-.2-5-.5-9.9-.7-15h-3.3c-4.4 16.7-26.3 19.6-39.7 26.7-1-3.6-1.7-7.4-2.6-11.1 4.2-2.8 7-6.9 10.4-10.4-.2-.9-.5-1.7-.7-2.6-3.7.1-4.6.5-5.9-2 7.2.3 8.3-2 7.8-9.1-.2-.4-.4-.9-.7-1.3-.4.2-.9.4-1.3.7-3.2 5.6-11.8 19.1-19.6 20.2-1.7-3.4-3.8-3.8-4.6-8.5.2-.4.4-.9.7-1.3 9.5-1.3 14.7-10.8 21.5-15.7-.2-.4-.4-.9-.7-1.3h-3.3c-1.8-14.2-4.3-18.4 5.9-27.3 0-6.5-2.3-8.3-4.6-12.3 5.2-3.4 10.4-7 15.7-10.4 2.8 3.1 5.6 6 8.5 9.1v2.6c-2.6 3.9-7.3 5.6-10.4 9.1.2 3.1.5 6 .7 9.1h2c1.1-3.1 1.8-3.6 5.9-3.9.2-2.6.2-2.5 1.3-3.9h.7c.7 3.6 1.3 7.4 2 11.1-2.5 1.6-4.5 3.8-5.9 6.5h13.7c1.6 2.8 2.5 3.1 2.6 7.8-5.5 3.9-22.5 22.5-26 28.6h1.3l.7.7c12.4-3.6 23.2-17 30.6-26-.2-17 1-32.2 5.9-44.3 2.5-6.2-.6-11.3 1.3-16.2 2.6-7 8.3-14.8 9.7-24.8 4.1.6 4.4 1.8 7.8 1.3 1-1.8 1-1.5 2.6-2.6v-3.3h3.3c3.6-6.2 14.7-8.2 16.2-15.7l7.2-.7c1 5.7-14.6 60.5-18.8 66.3-3.2 1.3-6.5 2.6-9.7 3.9-.7 2.6-1.3 5.2-2 7.8l.7.7c3.7-2.2 7.7-3.9 11.8-5.2-.2-4.2-.8-6 1.3-7.2 1.5 2.4 3.1 4.8 4.6 7.2l-.7 6.5c-10.4 1.6-15.6 10.9-25.4 12.2zm15-72.2c-1.6 9.8-12.2 18.3-9.2 30.6h3.3c5.6-5 11.3-9.9 16.9-15 1.7-8.5 3.4-16.9 5.2-25.3l-.7-.7-2.6 2.6c-3.9 2-6.9 7.6-13 7.8h.1zm-196.6-1.3c11.9-.1 12.7 4.7 21.5 5.9.5 11.4-3.8 16.3-15.7 15.7-3.7-6.2-6-10.6-5.8-21.6zm160 3.9c1.3 3.9 2.6 7.8 3.9 11.8-7.5.3-10 4.7-16.2 6.5l-.7-.7c.5-3.2 1.6-16.1 3.9-18.3 1.3-1.3 2.3-1.3 5.2-1.3 1.3 2.5.5 1.7 3.9 2zm265.6 2.6c1.1.2 2.2.5 3.3.7-.2.4-.4.9-.7 1.3-3.6 2-4.9 6.4-6.5 10.4-20.3-.1-34.5 8.1-46.2 18.3h-2c-.6-1.1-1.5-2-2.6-2.6-.2-4.9-1.3-4.9-2-9.1 2.1-1.3 3.1-4 4.6-5.9 9.5 7.3 24.8-5.7 31.8-8.5 7.4-2.9 14-1.5 20.3-4.6zm-552.5.6c-8.8 9.3-20.4 9.5-13.7 32.5h3.9c2-5.9 15-22.7 19.6-29.2-1-1-2.1-2.1-3.2-3.3h-6.6zm110.6 9.1v3.9h3.9v-3.9h-3.9zm419.2 43c0 4.6-2.9 20.6-1.3 24.1 4.9 10.6 6.5 30.7 6.5 45.5-6.2 4.2-8.3 8.5-19.5 8.5-2.1-5-4.1-12.8-8.5-15.7-8-5.2-20.3-8.2-24.1-17.6h5.2c3.7 7.4 17.6 10 28.7 9.7 2.1-14 5.2-42.4.7-57.3-.4.2-.9.4-1.3.7-2.4 3.1-27.4 16.1-32.5 16.2-.4-.2-.9-.4-1.3-.7V477c25.6-11.3 51.9-29.4 83.9-31.2 1 2.8 1.5 2.1 2 5.9-9.7 4.8-38.5 9.1-44.3 15.7v.7c1.8 1 1.5 1 2.6 2.6 1 .1 2.1.1 3.2.1zM405.6 452c-7 .5-16.5 6.9-16.2 15 2.9 4.4 5.6 8.7 8.5 13 4-1.3 5.9-4.6 8.5-7.2-.3-6.9-.5-13.8-.8-20.8zm175 13.7v-3.9c-2-1.3-3.9-2.6-5.9-3.9v5.9c2.5.9 2.1 1.4 5.9 1.9zm-24 14.2c8.2.1 14.5-4.6 18.3-9.1v-3.3c-2.1-1.5-3.2-4.1-5.2-5.9-4.7 3.7-12.3 11.4-13.1 18.3zm155.5 0-.7.7c.8.5 1.7.9 2.6 1.3v-.7c-.7-.4-1.3-.8-1.9-1.3zm-2 1.9-.7.7 1.3 1.3c.4-.2.9-.4 1.3-.7-.6-.3-1.2-.8-1.9-1.3zm-129.5 2c-5.7 11.1-21.1 14.8-25.3 26.7h9.1c7.4-4.6 26.5-8.5 35.2-11.1v-2.6c-.2-.4-.4-.9-.7-1.3-10.3-.5-10.1-9.3-18.3-11.7zm218 7.2c-1.5 2.3-4.1 3.1-5.9 5.2 1.5 2.1 1.5 2.5 4.6 3.3h.7c1.8-2.7 3.3-5.5 4.6-8.5h-4zm-66.4 3.2H727c-5.5 2.8-7.7 4-7.2 13l1.3 1.3c4-3.1 10.4-8.2 11.1-14.3zm54.7 21.6c.2-3.6.5-3.2 2-5.2-6.7-5.7-19.9-11.5-29.9-13l-.7.7c-.7 15.8-3.8 18.9 5.2 29.9 6-4 16.3-11.5 23.4-12.4zm-360.4.5-4.6.7c-.5 8.5-1 16.9-1.3 25.3 2.1.8 1.7.9 3.3 2 1.1-.2 2.2-.5 3.3-.7-.7-6.1-.7-16.7-.7-27.3zm287.6 7.9c-.6.5-1.3.9-2 1.3.2.4.4.9.7 1.3 2.6-.2 2.5-.2 3.9-1.3-.9-.5-1.8-.9-2.6-1.3z"/>
</svg>