<svg xmlns="http://www.w3.org/2000/svg" viewBox="0 0 1024 1024" width="64" height="64">
  <path fill="#0A6BAF" d="M103.4 408c57.5 0 104 46.4 104 103.6 0 7.7-1 15.1-2.4 22-32.8-1-113.6-5.3-107.1-13.4 5.3-6.7 27.3-5.7 45.1-17.9 5.5-3.6-8.6-11.7-28.3-14.4-30.9-3.8-96.8-14.4-42.9-21.8 71.9-10-4.6-22.2-45.8-23.7 18.9-21 46.4-34.4 77.4-34.4"/>
  <path fill="#17A252" d="M192.8 564.5c-18.2 30.3-51.1 50.9-89.1 50.9C46.4 615.4 0 569 0 511.9c0-25.3 9.1-48.7 24.4-66.7 59.5 6.3 59 10.3 23.6 16.8-47.3 9.3-20.5 17.7 10 24.6 15.5 3.3 31.5 5.5 41.1 12.4 8.8 6.2-42.8 7.6-48.5 21.5-4.5 10.3 54 32.5 142.2 44"/>
</svg>