<svg xmlns="http://www.w3.org/2000/svg" viewBox="0 0 1024 1024" width="64" height="64">
  <path fill="#D80C18" d="M164.707 396.091c.481.482 3.371 9.638 6.742 11.565 3.371 1.446 16.856-2.409 23.117 6.265 2.89 5.783-1.445 8.192 2.408 11.565 24.562 14.457 28.896-3.373 38.528 13.01 4.334 13.976-16.856 11.084-22.154 26.504-1.444-2.89-7.224-5.782-9.15-7.228-17.338-10.601-37.565-14.938-58.755-9.156-40.454 11.084-64.534 51.562-53.94 92.04 11.078 40.478 52.014 64.09 92.468 53.007 12.04-3.373 26.488-11.083 35.157-18.793 7.224-5.301 13.484-14.457 19.745-17.348l-.202.252c-.865 1.098-4.257 5.548-5.095 8.904l.113.016c.464.043 2.352-.007 5.666-2.908 3.853-3.855 6.26-10.601 6.26-10.601-.481 2.41 1.445 8.674-5.779 17.348l-.412.546c-4.192 5.507-8.241 9.573-7.775 9.573 1.445-.482 3.853-2.41 7.224-4.337 2.89-1.927 6.743-9.637 6.743-9.637 0 3.373-4.816 16.865-10.596 24.094-8.601 11.777-18.905 19.722-20.11 20.633l-.76.567c-5.571 4.142-11.325 7.838-21.992 11.086-62.126 16.866-125.216-19.757-141.59-80.956-3.853-14.457-3.853-30.84-2.89-46.261l-.502.29c-2.305 1.291-12.26 6.456-24.06 6.456C9.15 502.587 0 491.504 0 478.493c0-12.047 13.966-27.949 13.966-27.467l-.015.58c-.028 2.613.483 12.966 12.055 13.394 26.007-2.409 38.528-22.648 58.755-39.514l2.89-2.41c11.843-9.953 26.015-18.042 43.892-22.89l.897-.24c10.595-2.89 21.672-4.337 32.267-3.855zm34.195 96.53c6.227 0 11.497 5.336 11.497 11.642v35.41c0 6.307-5.27 11.643-11.497 11.643h-55.568c-6.227 0-11.496-5.336-11.496-11.642v-35.411c0-6.306 5.27-11.642 11.496-11.642h55.568z"/>
</svg>