<svg xmlns="http://www.w3.org/2000/svg" viewBox="0 0 1024 1024" width="64" height="64">
  <path fill="#C00415" d="M130.1 563H43.9c-1.9 0-4.3-1.3-4.3-4.5v-8.4c0-2.1 1.8-4.1 4.3-4.1h73c3.1 0 5.5-2.6 5.5-5.7v-27.2c0-3.6-2.8-5.8-5.8-5.8-2.3 0-34.9.1-42.4.1-3.3 0-4.5-2.5-4.5-4.3v-10.2c0-2.9 2.5-4.3 4.2-4.3h56.6c5 0 9.8 4.3 9.8 9.8v54.3c0 7.2-5.7 10.3-10.2 10.3zM49.9 461.7h86.2c1.8 0 4.2 1.3 4.2 4.5v8.4c0 2.1-1.8 4.1-4.2 4.1h-73c-3.1 0-5.5 2.6-5.5 5.7v27.2c0 3.6 2.7 5.8 5.8 5.8 2.3 0 34.9-.1 42.4-.1 3.3 0 4.5 2.4 4.5 4.3v10.2c0 2.8-2.5 4.3-4.2 4.3H49.5c-5 0-9.8-4.3-9.8-9.8V472c0-7.2 5.7-10.3 10.2-10.3zM90.7 422c50.1 0 90.7 40.5 90.7 90.3 0 49.9-40.6 90.4-90.7 90.4S0 562.2 0 512.3C0 462.5 40.6 422 90.7 422zm0 163.7c40.6 0 73.6-32.8 73.6-73.3s-32.9-73.3-73.6-73.3c-40.6 0-73.6 32.8-73.6 73.3 0 40.4 33 73.3 73.6 73.3z"/>
</svg>