<svg xmlns="http://www.w3.org/2000/svg" viewBox="0 0 1024 1024" width="64" height="64">
  <path fill="#F2933B" d="M152.41 664.01c83.946 0 152.409-68.463 152.409-152.41s-68.463-152.41-152.41-152.41C68.463 359.19 0 427.654 0 511.6s68.463 152.41 152.41 152.41z"/>
  <path fill="#FEDA65" d="M234.367 383.192c12.854 8.111 24.025 18.045 33.873 29.476-8.44-1.15-17.096-1.265-25.856-1.265-103.98 0-189.138 84.257-189.138 188.166 0 10.027.832 19.926 2.367 29.57-11.703-9.644-21.87-21.012-30.312-33.658 2.11-114.638 90.533-207.89 209.066-212.289zm65.592 90.69C281.158 464.364 259.99 459 237.545 459c-76.418 0-138.767 62.269-138.767 138.588 0 21.97 5.18 42.726 14.324 61.247 12.534 3.385 25.707 5.173 39.328 5.173h1.151c-14.516-18.265-23.15-41.257-23.15-66.292 0-58.884 48.09-106.911 107.05-106.911 25.452 0 48.857 8.94 67.274 23.885 0-.958.064-1.852.064-2.81-.064-13.156-1.727-25.865-4.86-38zm-64.204 61.63c25.515 0 47.321 16.413 55.379 39.213-15.092 32.891-41.567 59.587-74.244 74.915-23.15-7.856-39.84-29.826-39.84-55.5 0-32.316 26.347-58.628 58.705-58.628zm.895 28.867c-17.394 0-31.59 14.178-31.59 31.55 0 17.371 14.196 31.55 31.59 31.55s31.59-14.179 31.59-31.55c0-17.372-14.196-31.55-31.59-31.55z"/>
  <path fill="#FEDA65" d="M152.397 359.127c12.535 0 24.686 1.532 36.39 4.405 8.76 18.13 13.685 38.43 13.685 59.88 0 76.286-62.354 138.528-138.777 138.528-21.04 0-40.993-4.724-58.9-13.151a151.309 151.309 0 0 1-4.732-37.537v-1.787c17.779 13.15 39.778 20.939 63.504 20.939 58.965 0 107.057-48.006 107.057-106.865 0-24.13-8.058-46.41-21.68-64.348 1.151-.064 2.302-.064 3.453-.064zM65.934 484.313c32.871 0 59.731-26.748 59.731-59.624 0-23.301-13.494-43.538-33.127-53.369-13.366 5.746-25.709 13.278-36.773 22.407a33.124 33.124 0 0 1 8.378-1.085c17.715 0 32.168 14.427 32.168 32.11s-14.453 32.11-32.168 32.11-32.168-14.427-32.168-32.11c0-2.68.32-5.298.96-7.788a151.715 151.715 0 0 0-20.465 34.217c9.784 19.598 30.121 33.132 53.464 33.132z"/>
  <path fill="#FBF9BD" d="M63.567 530.404c.99 0 1.978-.013 2.961-.04a186.438 186.438 0 0 0-9.535 31.43 135.396 135.396 0 0 1-27.827-4.174 222.126 222.126 0 0 1 8.194-30.434 107.947 107.947 0 0 0 26.207 3.218zm43.657 24.585-1.772.562c13.882-42.666 47.854-76.547 90.657-90.122-13.505 42.386-46.67 75.724-88.885 89.56zm17.675-138.805c.504 3.113.766 6.306.766 9.558 0 15.304-5.77 29.022-15.25 39.328a173.668 173.668 0 0 0-3.59 3.576c-10.689 9.774-25.077 15.667-40.891 15.667a65.46 65.46 0 0 1-7.93-.48 213.915 213.915 0 0 1 26.845-34.75 34.202 34.202 0 0 0 4.238-4.318 211.488 211.488 0 0 1 35.726-28.528zm77.586-.545-2.59.575a187.919 187.919 0 0 0-29.155 9.27c.008-.294.01-.594.01-.895 0-9.997-1.38-19.677-3.962-28.864a212.601 212.601 0 0 1 30.872-8.512c2.595 9.133 4.264 18.642 4.825 28.426z"/>
  <path fill="#191113" d="M499.352 457.418v14.193h-66.839v69.756c0 6.576-5.33 11.907-11.907 11.907h-42.948v-13.703h32.038a7.144 7.144 0 0 0 7.144-7.144v-60.816h-73.92v-14.193h156.432zm420.335-10.377 99.55.008a4.762 4.762 0 0 1 4.758 4.55l.005.213v8.568h-30.842v76.194c0 7.786-6.227 14.118-13.973 14.285l-.315.003H944.6v-14.139h23.548a7.144 7.144 0 0 0 7.14-6.903l.004-.241v-69.2h-55.605v-13.338zm-297.973-49.748v23.116h36.4a3.572 3.572 0 0 1 3.567 3.382l.005.19v24.787h-15.19v-14.374a1.19 1.19 0 0 0-1.069-1.184l-.122-.006h-23.59v27.255h24.147a9.526 9.526 0 0 1 9.396 11.088 63.97 63.97 0 0 1-3.348 12.37c-2.812 7.357-10.91 18.793-24.293 34.308 12.586 9.975 22.483 15.458 29.691 16.446 10.813 1.483 11.75 2.95 10.16 4.618-1.59 1.669-6.916 10.935-8.57 10.935-1.612 0-11.843-5.426-21.405-10.522l-.774-.413c-9.777-5.212-18.325-13.089-20.313-11.943-1.989 1.145-35.73 21.608-41.762 21.608-3.94 0-7.103-3.092-9.492-9.274l-.148-.39 43.475-23.002c-4.052-3.086-8.645-8.252-13.779-15.498-5.017-7.082-8.888-16.532-11.612-28.35l-.188-.83h-8.256c-.39 18.823-.94 30.732-1.65 35.729-.71 4.996-7.746 18.499-21.11 40.509-5.736 1.68-9.752-.618-12.049-6.898 12.327-12.807 22.287-36.975 22.485-43.609l.003-.196V420.41h41.79v-23.116h17.601zm99.679 2.179c0 1.43-2.788 8.094-8.365 19.988l-.248.528h27.946v12.98h-35.875c-4.518 7.086-8.085 12.49-10.702 16.213h46.577v12.058h-24.892v20.401h24.892v15.7h-24.892v31.124c3.903.525 6.492.525 7.769 0 1.276-.525 6.984-4.152 17.123-10.88v12.864l-28.29 19.776h-9.389V497.34h-21.85v-15.7h21.85v-20.402h-11.182v-8.917c-1.544 2.027-2.515 3.04-2.913 3.04-1.62 0-8.988-10.032-7.576-11.502 1.31-1.364 15.844-22.783 18.27-29.118 1.225-3.2 2.96-8.736 5.205-16.609 11.028-.56 16.542-.114 16.542 1.339zm101.894 4.636a9.526 9.526 0 0 1 9.522 9.254l.004.271v68.3c-16.165-.178-29.771-.178-40.818 0 0 7.236 3.868 15.606 11.604 25.108l.426.52 25.166-18.12c1.43-1.984 3.734-1.571 6.914 1.237 4.77 4.213 5.806 9.024 3.255 9.024-2.552 0-20.834 9.766-27.623 14.572 9.493 9.259 21.09 16.403 34.793 21.432l.897.325-11.322 14.193c-17.872-11.852-29.322-20.172-34.349-24.96a71.164 71.164 0 0 1-3.805-3.894c-7.103-7.89-14.745-20.747-22.926-38.57l-.396-.867h-13.297c-.56 33.014-.068 50.055 1.472 51.12 2.311 1.6 20.8-7.337 23.974-11.683 2.07-2.833 3.778-2.896 5.126-.189l.091.19v10.083c0 1.283-32.422 18.078-33.719 18.75l-.04.02h-12.719V404.108h77.77zm80.083 36.002c4.6 0 10.506 4.66 11.728 9.07-3.086 3.67-8.148 10.727-15.186 21.171v79.873h-13.938V488.45c-10.452 9.714-16.225 14.884-17.32 15.51-1.641.939-8.17-10.407-9.68-10.407-1.507 0 9.694-6.37 17.297-14.786s26.168-34.702 27.099-38.657zm-370.86 46.115 14.075 8.888-17.325 55.11-16.891-4.827 20.14-59.17zm105.813-14.614H597.3a1.19 1.19 0 0 0-1.122 1.589c2.632 7.419 5.225 13.245 7.778 17.478 2.733 4.53 7.546 10.76 14.44 18.687 6.661-7.641 11.4-13.934 14.213-18.877 2.626-4.614 4.914-10.402 6.862-17.366a1.19 1.19 0 0 0-1.147-1.511zM520.17 441.957l26.416 20.158-8.573 10.765-27.436-20.037 9.593-10.886zm297.607 5.084h-56.358a1.19 1.19 0 0 0-1.185 1.069l-.006.121v21.877a1.19 1.19 0 0 0 1.069 1.184l.122.006h56.358a1.19 1.19 0 0 0 1.185-1.069l.006-.121V448.23a1.19 1.19 0 0 0-1.19-1.19zm-213.82-13.043h-29.559v25.987h29.558v-25.987zm-178.62-36.705c4.148 6.114 6.222 11.496 6.222 16.144v8.79h52.48c4.76 0 9.262 2.36 9.262 10.977v19.767h-13.752v-13.34c-.021-4.285-2.74-6.427-8.159-6.427H368.604c-3.59-.139-5.386 1.397-5.386 4.607v15.16l-15.157-.128v-30.616h66.75c1.276-6.233 1.276-10.836 0-13.81-1.276-2.973-2.96-5.576-5.055-7.81l15.58-3.314zm478.95.84c7.952 4.484 11.928 7.678 11.928 9.582 0 2.855-38.638 39.408-40.825 41.466-2.188 2.057-4.227 4.685-9.115 0-4.887-4.686-3.092-6.942-1.167-9.07.88-.973 9.297-7.628 21.235-20.407 3.656-3.914 9.638-11.104 17.945-21.57zm-86.51 17.72h-56.358a1.19 1.19 0 0 0-1.185 1.069l-.006.121v18.411a1.19 1.19 0 0 0 1.069 1.185l.122.006h56.358a1.19 1.19 0 0 0 1.185-1.07l.006-.12v-18.412a1.19 1.19 0 0 0-1.19-1.19zm-292.862-15.245 26.97 21.619-9.38 10.977-26.776-22.459 9.186-10.137zm486.087 7.107c7.098 0 9.014 4.567 5.749 13.7l-.128.354h-87.18v-14.054h81.56z"/>
</svg>