<svg xmlns="http://www.w3.org/2000/svg" viewBox="0 0 1024 1024" width="64" height="64">
  <path fill="#B41D22" d="m0 377.5.6 269.6c50.4 1.7 79.7-10.8 103-27.5 18.8-13.4 30.6-30.3 39-46.6 8-15.5 9.5-27.4 21.1-39.3 6.5-6.7 14.9-13.9 31.8-20.6v-.8c-14.6-5.6-25.6-12.7-32.3-21.2-2.8-3.6-2.3-3.9-1.2-8.3 8.3-31.5 40.2-55.6 70.9-61.2l-.4 181.4c-14-.7-28.3-8.6-38.7-16.2-12.6-9.2-21.8-21.3-28.7-35.4l-1.1-.4c-4.7 16.8-11.8 31.1-20.5 43.8 25.4 36.4 67.3 54.6 127.2 52.8l.1-269.8c-24.3-1.7-45.9.6-64.7 6.9-37.3 12.6-62.9 38.4-73.9 61.2-13.4 27.7-21.1 55.6-56.6 65.3-1.4 2-1 1.4 1.1 2.2 14.1 5.7 26 13.1 33.3 24.3-.1 8.9-13.2 29.9-23 39.8-13 13.2-29.4 21-47.8 25.7l-.3-181.5c34 6.2 54.2 27 68.2 54.6 4.1-18.1 11.4-33.8 21.2-47.4C97.4 392.1 55.4 373.7 0 377.5"/>
</svg>