<svg xmlns="http://www.w3.org/2000/svg" viewBox="0 0 1024 1024" width="64" height="64">
  <path fill="#C62D36" d="M727.163 461.432h10.206v104.781h-10.206z"/>
  <path fill="#BD0016" d="M73.625 540.148c-25.7 1.54-50.795 5.365-73.625 11.565C32.61 516.265 59.601 469.819 73.84 424h.051c6.192 22.71 15.418 46.538 26.89 69.483a436.744 436.744 0 0 1-27.156 46.665z"/>
  <path fill="#730000" d="M127.916 540.26c14.33 21.498 30.384 41.282 47.35 57.833-47.248-10.586-101.2-10.84-148.469-.225l-.041-.071.79-.775.778-.785.78-.786.779-.785.779-.806.779-.826.769-.795.779-.816.779-.816.769-.816.758-.815.77-.857.768-.816.769-.846.769-.857.769-.836.768-.846.749-.867.748-.847.748-.856.749-.867.758-.877.77-.867.737-.867a407.754 407.754 0 0 0 28.448-37.742 442.526 442.526 0 0 1 54.3.133z"/>
  <path fill="#E5001F" d="M100.78 493.494c11.482-22.946 20.657-46.732 26.643-69.494 14.67 46.013 41.61 92.765 74.63 127.948l-.041.07c-22.963-6.159-48.222-10.105-74.096-11.767a434.848 434.848 0 0 1-27.136-46.757z"/>
  <path fill="#BD0016" d="m202.022 552.019-26.746 46.063c-16.965-16.55-33.019-36.335-47.35-57.832 25.864 1.663 51.133 5.61 74.096 11.769z"/>
  <path fill="#E5001F" d="M26.756 597.797 0 551.723c22.83-6.21 47.925-10.045 73.625-11.595-14.24 21.314-30.15 41.026-46.87 57.669z"/>
  <path fill="#730000" d="M127.423 424.01c-5.986 22.762-15.161 46.538-26.653 69.473-11.471-22.945-20.697-46.762-26.868-69.473h53.521z"/>
</svg>