<svg xmlns="http://www.w3.org/2000/svg" viewBox="0 0 1024 1024" width="64" height="64">
  <defs>
    <linearGradient id="eg_gold" x1="0%" y1="0%" x2="100%" y2="100%">
      <stop offset="0%" style="stop-color:#DAA520"/>
      <stop offset="100%" style="stop-color:#FFD700"/>
    </linearGradient>
    <linearGradient id="eg_blue" x1="0%" y1="0%" x2="100%" y2="100%">
      <stop offset="0%" style="stop-color:#003366"/>
      <stop offset="100%" style="stop-color:#1a5276"/>
    </linearGradient>
  </defs>
  <!-- 菱形盾牌底座 -->
  <path fill="url(#eg_blue)" d="M512 80L880 340v344L512 944 144 684V340z"/>
  <!-- 内部金色菱形 -->
  <path fill="url(#eg_gold)" d="M512 180L790 380v264L512 844 234 644V380z"/>
  <!-- 蓝色古钱币圆 -->
  <circle fill="url(#eg_blue)" cx="512" cy="512" r="160"/>
  <!-- 金色内圆 -->
  <circle fill="url(#eg_gold)" cx="512" cy="512" r="130"/>
  <!-- 方形钱币孔 -->
  <rect x="460" y="460" width="104" height="104" rx="8" fill="url(#eg_blue)"/>
  <!-- H 字母变形 -->
  <path fill="#FFD700" d="M480 490h64v30h-28v40h28v30h-64v-30h26v-40h-26z"/>
  <!-- F 字母变形 -->
  <path fill="#FFD700" d="M548 490h40v28h-12v12h28v28h-28v12h28v28h-56z"/>
</svg>
