<svg xmlns="http://www.w3.org/2000/svg" viewBox="0 0 1024 1024" width="64" height="64">
  <path fill="#FE0009" d="M123.23 635.84C55.171 635.736.041 580.556 0 512.497c-.03-49.942 30.04-94.98 76.18-114.095 46.138-19.116 99.25-8.54 134.548 26.79s45.824 88.451 26.667 134.573c-19.158 46.12-64.223 76.15-114.165 76.075zM20.444 512.422c-.015-41.562 25.01-79.039 63.403-94.954 38.393-15.915 82.593-7.134 111.986 22.249 29.394 29.383 38.192 73.58 22.29 111.978-15.901 38.4-53.37 63.437-94.93 63.437-56.723-.02-102.707-45.987-102.749-102.71zm102.749 107.67c43.552 0 82.815-26.236 99.479-66.475 16.663-40.239 7.444-86.553-23.357-117.344-30.802-30.79-77.12-39.993-117.352-23.316-40.233 16.677-66.457 55.95-66.442 99.502.021 59.45 48.221 107.634 107.672 107.634zm-2.443-162.051h-8.005a2.668 2.668 0 1 1 0-5.337h7.892v-23.826h-18.79l4.584 33.447H80.124s10.072 64.791-16.836 118.833h35.1c18.529-49.758 16.462-55.733 16.462-55.733h5.9v-22.21h-5.976a2.668 2.668 0 0 1-2.668-2.67 2.706 2.706 0 0 1 2.668-2.705h5.976v-39.8zm5.336 0v39.799h5.826a2.706 2.706 0 0 1 2.668 2.706 2.668 2.668 0 0 1-2.668 2.668h-5.826v22.21h5.675s-2.142 5.976 16.386 55.734h35.252c-26.759-54.042-16.724-118.833-16.724-118.833h-26.307l4.51-33.447h-18.792v23.826h7.517a2.668 2.668 0 1 1 0 5.337h-7.517zm-21.797 72.307-.488.376 2.367 8.794a2.518 2.518 0 0 1-1.804 3.044 2.443 2.443 0 0 1-3.044-1.766l-2.142-7.968a7.516 7.516 0 0 1-1.315 0h-1.09l-2.105 7.93a2.518 2.518 0 0 1-4.848-1.278l2.33-8.719a5.6 5.6 0 0 1-.526-.45 8.907 8.907 0 0 1-2.593-6.352v-36.003a8.944 8.944 0 0 1 17.889 0v36.04a8.832 8.832 0 0 1-2.63 6.314v.038zm-10.335-27.322v20.97a4.021 4.021 0 0 0 1.165 2.857 3.758 3.758 0 0 0 2.706 1.09 3.758 3.758 0 0 0 2.856-1.165 3.984 3.984 0 0 0 1.165-2.744v-21.008h-7.892zm7.967-4.998v-10.035a3.758 3.758 0 0 0-3.758-3.983 3.984 3.984 0 0 0-4.02 3.758v10.072l7.778.188zm57.726 2.518-8.268 16.047v23.564a2.518 2.518 0 0 1-5.036 0v-23.451l-8.306-16.16 10.824-21.046 10.786 21.046zm-10.786 10.26h-.038l5.262-10.26-5.224-10.298-5.299 10.298 5.299 10.26z"/>
</svg>