<svg xmlns="http://www.w3.org/2000/svg" viewBox="0 0 1024 1024" width="64" height="64">
  <path fill="#ED9F2D" d="M209.15 356.999c-14.267-4.57-31.773 7.988-47.691 8.547l4.168 109.179a5.424 5.424 0 0 0 3.238 4.345c2.052.879 4.36.352 5.867-1.118l69.508-85.056c-12.728-9.361-19.83-30.929-35.09-35.897zm80.248 58.184c-9.041-12.35-30.153-12.845-43.298-21.072l-62.407 90.407c-.785 1.438-.913 3.195-.16 4.857a5.422 5.422 0 0 0 4.937 3.195l108.67-27.335c-4.904-15.608 1.652-37.192-7.742-50.052zm8.544 52.193-105.015 35.498a5.429 5.429 0 0 0-3.078 4.905 5.454 5.454 0 0 0 3.286 4.984l104.487 42.32c4.905-14.602 22.94-27.718 22.988-43.854.016-16.151-16.945-29.395-22.668-43.853zm-170.26 35.498L22.716 467.376C16.945 481.834-.032 495.078 0 511.229c.064 16.136 18.082 29.252 22.94 43.854l104.55-42.32a5.44 5.44 0 0 0 3.27-4.984 5.457 5.457 0 0 0-3.077-4.905zM111.477 357c-15.26 4.968-22.363 26.536-35.075 35.897l69.476 85.056c1.507 1.47 3.8 1.997 5.835 1.118a5.277 5.277 0 0 0 3.255-4.345l4.168-109.18c-15.855-.558-33.376-13.115-47.659-8.546zm-36.999 37.11c-13.13 8.227-34.21 8.722-43.235 21.072-9.41 12.86-2.885 34.444-7.742 50.052l108.59 27.335c2.116 0 4.088-1.167 5.002-3.195a5.453 5.453 0 0 0-.177-4.857L74.478 394.11z"/>
  <path fill="#C60009" d="M160.681 519.212 23.284 558.48c3.942 15.476-2.227 36.132 6.698 48.647 9.341 13.143 31.998 13.256 44.784 22.811 12.85 9.62 19.9 31.643 35.363 36.727 15.045 5.035 33.648-8.253 50.376-8.269 16.151-.032 34.225 13.4 48.822 8.671 15.366-5.003 22.416-26.881 35.234-36.244 12.9-9.459 35.555-9.362 44.977-22.36 9.421-12.967 2.788-34.893 7.787-50.562l-136.644-38.689z"/>
</svg>