<svg xmlns="http://www.w3.org/2000/svg" viewBox="0 0 1024 1024" width="64" height="64">
  <path fill="#A40000" d="M350.877 443C313.106 443 282 473.365 282 511.877c0 38.511 31.106 68.876 68.877 68.876 38.511 0 68.876-31.105 68.876-68.876S389.388 443 350.877 443zm-.27 126.991c-31.889 0-57.845-25.956-57.845-57.845 0-31.89 25.956-57.846 57.845-57.846 31.89 0 57.846 25.956 57.846 57.846 0 8.157-1.483 15.573-4.45 22.99 0 .741-.741 1.483-.741 1.483l.741 3.708s-.741-.742-2.225-1.484c-26.697-20.023-69.71-20.023-69.71-20.023C338 508.438 338 494.347 338 494.347c14.09-11.124 35.597-8.158 35.597-8.158l-5.19 22.99 16.314-30.406c-28.922-3.708-61.553 8.9-61.553 8.9 6.674 24.473-19.282 48.946-19.282 48.946 56.362-13.35 86.768 0 96.41 5.19-10.383 17.058-28.182 28.182-49.689 28.182z"/>
</svg>