<svg xmlns="http://www.w3.org/2000/svg" viewBox="0 0 1024 1024" width="64" height="64">
  <path fill="#A62626" d="M76.195 637.891c15.735-20.592 25.94-45.636 28.397-72.913h75.94c2.423 26.889 12.374 51.607 27.728 72.03-19.909 10.706-42.678 16.78-66.866 16.78-23.515 0-45.69-5.74-65.199-15.897zm-12.966-7.655C25.12 604.906 0 561.584 0 512.394c0-25.755 6.886-49.902 18.917-70.7 31.292 28.515 51.89 77.046 51.89 132.12 0 19.87-2.68 38.888-7.578 56.422zM264.11 442.111c11.883 20.704 18.677 44.7 18.677 70.283 0 48.937-24.86 92.068-62.642 117.45-4.829-17.425-7.47-36.308-7.47-56.03 0-54.806 20.4-103.133 51.435-131.703zm-109.633 17.375c.098-9.254.418-17.07.96-23.448h6.181c3.46 0 7.625.401 12.495 1.205V418.91c-4.422.754-8.587 1.13-12.495 1.13a67.15 67.15 0 0 1-3.537-.113c1.953-6.595 5.27-13.003 9.95-19.223h-50.847c4.835 7.258 8.1 14.996 9.796 23.214 1.557 7.55 2.399 19.384 2.526 35.503-38.808-2.32-73.673-14.893-99.578-34.029C55.806 392.284 96.115 371 141.394 371c45.774 0 86.467 21.751 112.309 55.481C227.7 445.19 193 457.386 154.477 459.486zm-37.75 23.694h51.671c1.22 0 2.21.99 2.21 2.21v51.671c0 1.22-.99 2.21-2.21 2.21h-51.671a2.21 2.21 0 0 1-2.21-2.21v-51.672c0-1.22.99-2.209 2.21-2.209z"/>
</svg>