<svg xmlns="http://www.w3.org/2000/svg" viewBox="0 0 1024 1024" width="64" height="64">
  <path fill="#BA533A" d="M92.96 544.568v-55.046h27.972v42.958h-12.088v-30.87h-3.797v55.046H16.134V501.61H.35v-12.088h27.872v55.046h5.295v-55.046h54.247v55.046h5.195zm-47.454 0h30.17v-17.183L60.591 542.47l-15.085-15.085v17.183zm63.338 17.283v-17.283h12.088v29.372H.35V512.2h12.088v49.751h96.406zm-33.168-46.155V501.61H61.49l14.186 14.086zm-30.17.1 14.186-14.186H45.506v14.186zm21.878-45.056h29.372v12.088h-72.33V470.74h30.87v-8.292H9.341v13.587H.35V450.36h120.582v25.575h-12.088v-13.487h-41.46v8.292zm-6.793 43.258-7.593 7.593 7.593 7.592 7.592-7.592-7.592-7.593z"/>
</svg>