<svg xmlns="http://www.w3.org/2000/svg" viewBox="0 0 1024 1024" width="64" height="64">
  <path fill="#04346E" d="M29.822 470.34h19.83v61.13c0 10.081-12.411 23.175-28.762 22.507C4.54 553.31 0 550.264 0 550.264v-20.513s5.146 3.357 15.29 3.357c14.017.139 14.532-8.708 14.532-8.708v-54.06zm179.993 35.299c4.66 0 8.438-3.808 8.438-8.504 0-4.7-3.778-8.51-8.438-8.51h-22.81v17.014h22.81zm9.32 16.547L242.482 554H217.8l-30.692-43.004V554h-22.166v-83.66h45.81l.2.07c14.141.607 25.427 12.32 25.427 26.724a26.753 26.753 0 0 1-17.244 25.05zm100.206 2.768v20.357c-7.711 5.014-17.176 8.01-27.447 8.01-25.79 0-46.692-18.652-46.692-41.662 0-23.007 20.902-41.659 46.692-41.659 10.271 0 19.736 2.996 27.447 8.01v20.357c-5.32-7.021-14.697-11.699-25.41-11.699-16.598 0-30.049 11.188-30.049 24.991 0 13.806 13.45 24.991 30.049 24.991 10.713 0 20.09-4.675 25.41-11.696zm54.042 11.184c4.669 0 8.453-3.808 8.453-8.5 0-4.698-3.784-8.502-8.453-8.502h-21.16v17.002h21.16zm-21.16-48.71v17.001h18.603c4.671 0 8.453-3.808 8.453-8.5 0-4.696-3.782-8.502-8.453-8.502h-18.604zm42.705 22.97c4.954 4.595 8.074 11.159 8.074 18.468 0 13.884-11.19 25.135-24.995 25.135-1.072 0-2.122-.088-3.159-.221v.22h-44.964v-83.66h44.964c13.806 0 24.996 11.253 24.996 25.137 0 5.596-1.84 10.747-4.916 14.92z"/>
  <path fill="#DD1916" d="M105.451 483.413 83.357 471 62 482.089v59.339l21.358 11.083.267-.148v-39.378h.104v-18.243l21.723 11.12 21.725-11.12v18.243h.105v39.38l.262.146 21.362-11.082v-59.34l-21.362-11.088z"/>
  <path fill="#8F151B" d="m127.177 528.775-21.725-11.128-21.725 11.128-.105 23.589 21.83-12.262 21.83 12.264z"/>
</svg>