<svg xmlns="http://www.w3.org/2000/svg" viewBox="0 0 1024 1024" width="64" height="64">
  <path fill="#EA5603" d="M280.135 511.777c0 23.456-15.293 43.394-35.291 51.603 14.116-8.21 24.704-24.629 24.704-42.22 0-21.112-16.47-37.53-37.644-37.53-10.588 0-18.822 8.209-18.822 18.764s8.234 18.765 18.822 18.765c-2.353 1.173-5.882 2.346-9.411 2.346-16.47 0-29.41-12.901-29.41-29.32 0-18.766 15.293-35.185 35.292-35.185 28.233 0 51.76 23.456 51.76 52.777zm-106.855.064c0-23.456 14.116-43.394 35.291-51.603-14.116 8.21-24.704 24.629-24.704 42.221 0 21.11 16.47 37.53 37.644 37.53 10.588 0 18.822-8.21 18.822-18.765s-8.234-18.765-18.822-18.765c2.353-1.173 5.882-2.346 9.411-2.346 16.47 0 29.41 12.901 29.41 29.32 0 18.766-15.293 35.185-35.292 35.185-28.233 0-51.76-23.456-51.76-52.777z"/>
</svg>