<svg xmlns="http://www.w3.org/2000/svg" viewBox="0 0 1024 1024" width="64" height="64">
  <path fill="#6FB92C" d="M59.26 465.188s40.256-55.73 105.975-21.09c0 0 33.587-23.154 75.904-22.06 4.79.182 38.376-.183 49.834 16.287 5.517 8.326 4.972 18.719-4.607 26.62 0 0-45.591-36.465-157.87-1.641 0 0-16.248-8.873-37.104-7.415-19.582 1.52-32.132 9.299-32.132 9.299z"/>
  <path fill="#00428D" d="m274.18 601.203 44.681-94.384s-22.734-65.516-143.502-48.681C67.566 473.332 5 549.422 5 549.422s71.296-48.863 162.114-22.79c75.358 21.635 107.066 74.57 107.066 74.57z"/>
</svg>