<svg xmlns="http://www.w3.org/2000/svg" viewBox="0 0 1024 1024" width="64" height="64">
  <path fill="#008CBA" d="M113.624 426.8c-17.3-6.7-25.6-13-42.8-10.5-46.5 8.3 5.5 78-44.2 71.8-10.2-1.3-17-4.6-22.2 1.8-7.5 8.6-4.1 19.7.2 29.8 27 57.6 123.8 132.1 191 131.2 65.6-.9 160.2-74.8 186.6-131.2 4.3-10.1 7.7-21.2.2-29.8-5.2-6.4-12-3.1-22.2-1.8-49.7 6.2 2.3-63.5-44.2-71.8-17.2-2.5-25.5 3.8-42.8 10.5-40.1 16.4-34.4-53.9-80.8-52.7-43.9 1.2-39.2 68.9-78.8 52.7"/>
  <path fill="#FFDE98" d="M151.624 591.1c0 24 19.4 43.4 43.4 43.4 23.8 0 43.2-19.3 43.4-43.1v-.6c-.2-23.8-19.5-43.1-43.4-43.1-24 0-43.4 19.5-43.4 43.4"/>
</svg>