<svg xmlns="http://www.w3.org/2000/svg" viewBox="0 0 1024 1024" width="64" height="64">
  <path fill="#E5332B" d="M113.849 398c44.848 0 83.64 25.984 102.198 63.746l-79.026.001-23.172-23.218-73.4 73.546 73.4 73.546 34.892-34.963 72.28.002c-15.786 44.013-57.81 75.49-107.172 75.49C50.972 626.15 0 575.077 0 512.075S50.972 398 113.849 398zm132.125 68.623-6.702 13.478h-12.675c-5.899 22.744-10.615 37.344-14.149 43.802-6.282 11.482-11.306 19.902-25.386 19.902H132.45l5.06-11.794 40.056.001c13.874 0 17.153-5.362 23.377-18.2l.2-.413c2.91-6.017 6.214-17.116 9.91-33.298h-15c-2.893 11.742-5.89 20.446-8.99 26.113-6.282 11.482-13.246 17.69-25.341 17.69h-36.075l-10.522 21.146h-17.09l10.524-21.15 5.868-11.79 22.637-45.487h108.91zM147.446 480.1l-15.93 32.01h20.707c16.563 0 19.628-5.442 25.854-18.297l.19-.392c1.584-3.274 2.384-7.714 2.399-13.32h-33.22z"/>
  <path fill="#E5332B" d="M350.245 543.267H1024v7.13H350.245z"/>
</svg>