<svg xmlns="http://www.w3.org/2000/svg" viewBox="0 0 1024 1024" width="64" height="64">
  <path fill="#015CAA" d="M125.98 468.834c3.873 32.903-4.288 57.983-14.487 74.417-10.2 16.434-36.115 29.83-49.996 46.244l3.49-.385c5.614-.588 13.075-1.057 28.52.385 16.808 1.57 41.862 19.047 60.485 20.669-13.018 5.663-27.391 8.803-42.5 8.803C52.679 618.967 5 571.382 5 512.682c0-52.08 37.53-95.41 87.07-104.522 20.102 19.17 31.405 39.393 33.91 60.674z"/>
  <path fill="#138B39" d="M111.493 406.397c58.814 0 106.492 47.585 106.492 106.285 0 29.343-11.914 55.908-31.177 75.141-14.39-2.62-26.791-6.112-37.204-10.478l-.864-.366c-19.449-8.335-39.447-12.354-55.233-8.335 15.933-10.275 38.95-8.38 61.618-34.668 22.668-26.287 22.668-75.301 0-98.323-16.628-16.887-39.756-25.443-53.496-28.803 3.248-.3 6.538-.453 9.864-.453z"/>
</svg>