<svg xmlns="http://www.w3.org/2000/svg" viewBox="0 0 1024 1024" width="64" height="64">
  <path fill="#FBC400" d="m310.27 433.27-75.15 76.16-77.245-76.16z"/>
  <path fill="#F39800" d="m310.27 581.36-75.15 83.555-77.245-83.556z"/>
  <path fill="#C30E19" d="m157.875 581.36-78.276 83.555L.218 581.359z"/>
  <path fill="#F39800" d="m310.27 433.27-76.217-74.065-76.178 74.064z"/>
  <path fill="#FCC902" d="m310.27 581.36-76.217-69.338-76.178 69.337z"/>
  <path fill="#8D202E" d="m.218 581.36 78.276-74.065L.218 433.27z"/>
  <path fill="#ED6D00" d="m234.053 359.205-76.178 74.064-79.381-74.064z"/>
  <path fill="#DA4206" d="M78.494 359.205.218 433.27h157.657z"/>
  <path fill="#ED6D00" d="m157.875 581.36-78.81 83.555h157.657z"/>
  <path fill="#DA4206" d="M78.494 507.295.218 581.36h157.657z"/>
  <path fill="#C30E19" d="m157.875 433.27-79.381 74.025L.218 433.27"/>
</svg>