<svg xmlns="http://www.w3.org/2000/svg" viewBox="0 0 1024 1024" width="64" height="64">
  <path fill="#648F34" d="M55.9 573.3c-.1-.6-.6-1-1.1-1.2C24.8 563.6 4 536.2 4 505s20.8-58.6 50.8-67.1c.5-.2.9-.6 1.1-1.2 8.5-30 35.9-50.7 67.1-50.7 31.2 0 58.6 20.8 67 50.8.2.6.6 1 1.2 1.1 30 8.5 50.7 35.9 50.7 67.1s-20.7 58.6-50.7 67.1c-.6.2-1 .6-1.2 1.1-8.5 30-35.8 50.8-67 50.8-31.2 0-58.6-20.7-67.1-50.7z"/>
  <path fill="#FFF" d="M61.2 565.4c-.4.6-.3 1.6.3 2.2.6.6 1.6.6 2.3 0l-.1.1c1.6-1.2 3.2-2.3 4.8-3.3l.1.1c33.3-21.9 76.5-21.9 109.8 0l.1-.1 4.8 3.3c.3.2.6.3 1 .3.7 0 1.3-.4 1.6-1 .3-.6.2-1.3-.2-1.8l.3.3c-1.2-1.6-2.4-3.3-3.5-5l.1-.1c-21.9-33.3-21.9-76.5 0-109.8l-.1-.1c1.1-1.7 2.2-3.3 3.4-4.9l-.2.2c.6-.7.5-1.6 0-2.3s-1.6-.7-2.3-.2l.1-.1c-1.6 1.2-3.3 2.3-4.9 3.4l-.1-.1c-16.4 10.7-35.5 16.5-55 16.4-19.5 0-38.6-5.7-54.9-16.4l-.1.1c-1.7-1.1-3.3-2.2-4.9-3.4l.2.2c-.7-.5-1.6-.5-2.2.1-.6.6-.8 1.5-.3 2.2 1.2 1.6 2.3 3.2 3.4 4.9l-.1.1C75.3 466.9 81 486 81 505.5s-5.7 38.6-16.4 54.8l.1.1c-1.2 1.8-2.3 3.4-3.5 5z"/>
</svg>