<svg xmlns="http://www.w3.org/2000/svg" viewBox="0 0 1024 1024" width="64" height="64">
  <path fill="#0F0000" d="M325.8 582.7h24.5c3.3 0 5.8 1 8.1 2.9 2.9 2.3 4.4 6.3 3.9 10.4-.5 4.2-2.9 7.7-7.5 9.1 4.6 1.3 7.1 4.6 7.9 8.5.9 4.4-.5 8.9-3.6 11.6-2.2 1.9-4.7 2.9-7.4 2.9-4.8.1-17.5 0-26 0v-45.4zm400.7 0v25.5c0 1.6.1 3.4.7 5.1 1.5 4.9 5.1 7.1 10.8 7.1 5.8 0 9.3-2.2 10.8-7.1.5-1.7.7-3.6.7-5.1v-25.5h8.7v27.1c0 1.3-.1 2.6-.3 3.8-1.2 7.1-5.2 11.4-11.9 13.4-1.9.6-4.3 1.2-7.9 1.2-3.6 0-6-.7-7.9-1.2-6.7-2-10.7-6.3-11.9-13.4-.2-1.1-.3-2.5-.3-3.8v-27.1h8.5zm-291.2 0c9.3 12.9 22.7 31.5 22.7 31.5v-31.4h8.6v45.4h-8.4l-23.4-32.7v32.6h-8.5v-45.4h9zm381.2 0v25.5c0 1.6.1 3.4.7 5.1 1.5 4.9 5.1 7.1 10.8 7.1 5.8 0 9.3-2.2 10.8-7.1.5-1.7.7-3.6.7-5.1v-25.5h8.7v27.1c0 1.3-.1 2.6-.3 3.8-1.2 7.1-5.2 11.4-11.9 13.4-1.9.6-4.3 1.2-7.9 1.2-3.6 0-6-.7-7.9-1.2-6.7-2-10.7-6.3-11.9-13.4-.2-1.1-.3-2.5-.3-3.8v-27h8.5zm51.8 0c5.3 0 10.8-.1 16.1.6 10.8 1.3 20.9 10 19.4 24.9-1.1 11.1-10 20-23.3 20h-19v-45.5h6.8zm115.4-1c13.1 0 23.8 9.2 23.8 23.3s-10.7 23.3-23.8 23.3c-13.1 0-23.8-9.1-23.8-23.3s10.6-23.3 23.8-23.3zm-594.9 1h11.6l17.5 45.5h-9.6l-3.7-10.2h-20l-3.7 10.2h-9.6s12.1-31.2 17.5-45.5zm177-1c13.1 0 23.8 9.2 23.8 23.3s-10.7 23.3-23.8 23.3c-13.1 0-23.8-9.1-23.8-23.3s10.6-23.3 23.8-23.3zm360.9 1h11.6l17.5 45.5h-9.6l-3.7-10.2h-20l-3.7 10.2h-9.6l17.5-45.5zm-422.5 0h10.6l-18.2 20.7 19.5 23.7h-10.7l-14.6-18.8s-2.2 2.5-4.4 5.2V627h-8.6v-44.4h8.6v21.5l17.8-21.4zm169.3 0v17.9h23.3v-17.9h8.6v44.4h-8.5V608h-23.3v19.1h-8.5v-44.5h8.4zm-40.5 0v6.9h-23.3V601h22.8v7h-22.9v19.1H601v-44.5h32zm147.1 0V620h21.5v7.2h-30v-44.5h8.5zm-445.6 26h-.1V621h14.1c3.3 0 5.6-2.4 5.8-5.9.2-3.4-1.8-5.8-5.2-6.3-1.1-.2-2.2-.2-3.3-.2-2.9.1-10.2.1-11.3.1zm231.3-19.5c-8.3 0-15.1 6.2-15.1 15.8 0 9.6 6.8 15.8 15.1 15.8s15.1-6.3 15.1-15.8c0-9.6-6.8-15.8-15.1-15.8zm417.9 0c-8.3 0-15.1 6.2-15.1 15.8 0 9.6 6.8 15.8 15.1 15.8s15.1-6.3 15.1-15.8c-.1-9.6-6.8-15.8-15.1-15.8zm-108.1 1.3h-5.3v30.3h6.8c1.4 0 2.9 0 4.3-.2 2.5-.3 4.9-1 6.8-2.2 5.7-3.7 7.6-9.4 6.6-16.4-.9-6-5.6-10.5-11.9-11.2-2.7-.3-5.6-.3-8.3-.3h1zm-481 0-7.3 20.2H402l-7.4-20.2zm537.9 0-7.3 20.2h14.7l-7.4-20.2zm-584.1-.6h-14v11.6h13.5c3.1 0 5.3-2.2 5.5-5.2.1-1.8-.4-3.4-1.4-4.6-1-1.1-2.2-1.8-3.6-1.8z"/>
  <path fill="#D70110" d="M117.9 629.7c4.6.6 9.3.9 14.1.9 54.8 0 99.2-39.5 99.2-88.1 0-25.8-12.5-49-32.3-65.1v-78.8c39.4 22.9 65.9 65.4 65.9 114.1 0 72.9-59.4 132.1-132.8 132.1-17.8 0-34.8-3.5-50.3-9.8V454c0-19.5 12.2-33.7 36.2-35.7v69.3h29v-92.5c-4.3-.5-8.7-.8-13.1-.9h-.9c-54.8 0-99.2 39.5-99.2 88.1 0 25.8 12.5 49 32.3 65.1v78.7c-39.5-22.8-66-65.4-66-114C0 439.1 59.4 380 132.8 380c17.8 0 34.8 3.5 50.3 9.8v180c0 19.5-12.2 33.7-36.2 35.7v-69.3h-29v93.5z"/>
</svg>