<svg xmlns="http://www.w3.org/2000/svg" viewBox="0 0 1024 1024" width="64" height="64">
  <path fill="#E60012" d="m584.61 501.311-44.476-44.085c-3.14-3.112-3.14-7.78 0-10.892 3.14-3.112 7.849-3.112 10.988 0l44.476 44.086c3.14 3.112 3.14 7.78 0 10.891-2.616 3.112-7.849 3.112-10.988 0zm-48.505-17.957-25.012-25.011c-3.126-3.127-3.126-7.816 0-10.943 3.127-3.126 7.816-3.126 10.943 0l25.01 25.012c3.127 3.126 3.127 7.816 0 10.942-3.125 3.127-7.815 3.127-10.941 0zm-15.308 15.177-25.011-24.926c-3.126-3.116-3.126-7.79 0-10.905 3.126-3.116 7.816-3.116 10.942 0l25.012 24.926c3.126 3.116 3.126 7.79 0 10.905-3.127 2.596-7.816 2.596-10.943 0zm-14.78 14.382-25.01-25.011c-3.127-3.127-3.127-7.816 0-10.943 3.126-3.126 7.816-3.126 10.942 0l25.011 25.011c3.127 3.127 3.127 7.817 0 10.943-2.605 3.126-7.816 3.126-10.942 0zm-40.318-9.704c-3.126-3.127-3.126-7.816 0-10.943 3.127-3.126 7.816-3.126 10.943 0l25.011 25.012c3.127 3.126 3.127 7.816 0 10.942-2.605 3.127-7.816 3.127-10.942 0l-25.012-25.011zm118.966 27.65-25.01-25.01c-3.127-3.127-3.127-7.817 0-10.943 3.125-3.127 7.815-3.127 10.942 0l25.01 25.01c3.127 3.127 3.127 7.817 0 10.943-3.126 3.127-8.336 3.127-10.942 0zm-15.307 15.308-25.011-25.012c-3.127-3.126-3.127-7.816 0-10.942 3.126-3.127 7.816-3.127 10.942 0l25.012 25.011c3.126 3.127 3.126 7.816 0 10.943-3.127 3.126-7.816 3.126-10.943 0zm-14.78 15.307-25.01-25.012c-3.127-3.126-3.127-7.816 0-10.942 3.126-3.126 7.816-3.126 10.942 0l25.011 25.011c3.127 3.127 3.127 7.816 0 10.943-3.126 3.126-7.816 3.126-10.942 0zm-15.306 14.78-25.012-25.012c-3.126-3.127-3.126-7.816 0-10.943 3.127-3.126 7.816-3.126 10.943 0l25.011 25.012c3.126 3.126 3.126 7.816 0 10.942-3.126 3.127-7.816 3.127-10.942 0zm-29.615.538-44.476-44.086c-3.14-3.112-3.14-7.78 0-10.892 3.14-3.112 7.85-3.112 10.989 0l44.475 44.086c3.14 3.112 3.14 7.78 0 10.892-3.14 3.112-7.848 3.112-10.988 0z"/>
</svg>