<svg xmlns="http://www.w3.org/2000/svg" viewBox="0 0 1024 1024" width="64" height="64">
  <path fill="#231916" d="M971.788 475.103v11.56h25.798v27.304s.669 5.277-5.277 5.277h-12.144v11.475h18.76s11.223-.166 11.223-10.554v-33.503h13.4v-11.559h-51.76zm2.85-13.401h45.392v-11.39h-45.393v11.39zm-14.574 5.194c-5.36 16.249-23.283 27.64-23.283 27.64v10.05c5.166-1.77 9.594-4.125 13.4-6.787v33.089h11.726v-44.3c7.714-9.983 9.881-19.692 9.881-19.692h-11.724zm-1.005-22.448s-9.546 15.914-20.1 20.102v9.38s23.116-4.69 31.49-29.482h-11.39zm-71.19 38.278v-7.455h23.619v1.006s1.338 6.45-6.448 6.45h-17.17zm0-17.17h23.619v-7.372H887.87v7.371zm25.629 27.305c9.38 0 9.044-11.057 9.044-11.057v-26.48a7.693 7.693 0 0 0-7.693-7.693H876.48s.166 62.818.166 72.87c0 10.052 9.549 10.219 9.549 10.219h15.074v-10.052h-8.71c-4.356 0-4.522-3.517-4.522-3.517v-24.29h3.575c6.537 29.981 30.93 37.859 30.93 37.859v-11.726c-3.257-1.894-6.129-4.656-8.598-7.697l8.766-5.705v-12.229l-14.566 9.226a78.606 78.606 0 0 1-4.556-9.728h9.909zm-70.656-24.477v7.8h8.345v10.584h-9.883v8.513h9.883v24.55s-.334 10.553 9.715 10.553h10.05v-9.882h-4.02s-4.355.67-4.355-5.529v-19.692h9.38v-8.513h-9.38v-10.584h6.867v-7.8h-26.602zm-41.571 35.55c4.896-2.387 20.355-12.147 25.125-41.896h-12.395s-5.83 22.583-12.73 28.748V447.63h-12.396v68.014h-11.39V447.63H765.09v42.996c-6.827-6.378-12.562-28.588-12.562-28.588H740.13c4.719 29.424 19.89 39.29 24.959 41.813v11.793H740.13v11.894h86.431v-11.894H801.27v-11.71zm-104.1-42.399-2.79 8.04H674.9l-2.99-8.04h25.26zm-25.218 29.985c3.336-3.502 6.496-7.808 8.573-12.898h9.327c2.076 5.09 5.235 9.396 8.573 12.898h-26.473zm5.365 15.747.166-7.035h14.573v2.68s.335 4.355-4.188 4.355h-10.55zm34.003-28.645v9.774c-3.246-2.826-6.358-7.686-7.617-9.774h7.617zm-53.267 0h8.622c-1.39 2.303-5.032 7.978-8.622 10.577v-10.577zm32.664-34.007h-12.06v7.371H643.65v9.549h14.692l2.99 8.04h-6.64a7.693 7.693 0 0 0-7.693 7.693v53.62h11.055v-28.672c1.67-.913 5.227-3.016 9.154-6.274l-.276 20.705h23.284c12.396 0 11.76-9.112 11.76-9.112V494.71c3.366 3.24 7.13 5.654 9.345 6.939v14.16s-.169 4.692-4.356 4.692h-9.715v10.05h16.918s8.711-1.173 8.711-11.558v-41.726a7.693 7.693 0 0 0-7.693-7.693h-7.238l2.791-8.04h15.155v-9.549h-35.176v-7.37zm-163.896 45.918v-11.228h-59.634v-34.997h-11.956v34.997h-11.957v11.228h11.957v28.141c0 13.126 9.914 12.25 9.914 12.25h24.058v-11.227h-16.622c-5.685 0-5.394-4.376-5.394-4.376v-24.788h15.399c10.295 30.573 45.839 40.245 45.839 40.245v-11.519c-19.593-7.545-28.516-23.615-30.932-28.726h29.328zm-18.809-45.204c-5.25 13.562-27.557 21.727-27.557 21.727v8.166c33.536-4.667 41.118-29.893 41.118-29.893h-13.56zm-96.306 46.079v-6.24a8.463 8.463 0 0 0-8.462-8.463h-15.881c.38-5.287.067-8.337.067-8.337h-11.809a129.605 129.605 0 0 1-.799 8.337h-25.28l.27 10.474h23.124c-7.17 30.368-24.726 34.266-24.726 34.266v9.332s23.912-3.062 32.368-24.933c2.69-6.958 4.36-13.278 5.389-18.665h14.148v27.267c0 5.248-5.54 4.813-5.54 4.813h-15.164v10.777h22.867c9.428 0 9.428-9.43 9.428-9.43v-18.23c7.622 13.662 17.278 15.57 17.278 15.57v-10.06c-6.852-5.834-10.497-16.478-10.497-16.478h-6.78zm-58.248-.146s-5.831 14.143-11.08 16.766v10.355s15.309-4.374 21.724-26.976l-10.644-.145zM409.645 444h-11.784v7.955h-24.159V444h-11.785v7.955h-19.445v10.901h19.445v7.072h11.785v-7.072h24.159v7.072h11.784v-7.072h19.445v-10.901h-19.445V444zm142.031 48.32c-.294 23.573-8.838 26.52-8.838 26.52l.442 11.341c22.244-8.397 19.298-37.86 19.298-37.86h-10.902zm52.737-31.232h20.918v-11.49h-55.093v11.49h20.917v52.152h-25.337v11.787h63.933V513.24h-25.338v-52.152zM542.545 477l20.622 5.009v-11.196l-20.622-5.01V477zm0-20.625 20.622 5.009v-11.196l-20.622-5.01v11.197zm-292.289 35.947c-.294 23.572-8.838 26.518-8.838 26.518l.443 11.342c22.243-8.397 19.297-37.86 19.297-37.86h-10.902zm52.737-31.233h20.918v-11.49h-55.094v11.49h20.918v52.152h-25.338v11.787h63.934V513.24h-25.338v-52.152zM241.123 477l20.623 5.009v-11.196l-20.623-5.01V477zm0-20.625 20.623 5.009v-11.196l-20.623-5.01v11.197zm610.064-12.094c-2.942 7.147-6.223 11.781-9.842 13.903v10.2c5.018-2.468 8.609-5.068 10.773-7.799h20.51v-5.584H856.63c3.729-5.7 6.114-10.72 6.114-10.72h-11.557z"/>
  <path fill="#E50113" d="M132.395 504.462c-16.02 0-28.74 12.249-28.74 12.249 10.552-23.795 32.508-22.144 32.508-22.144h58.292a97.554 97.554 0 0 0-2.74-11.306h-59.32c-16.02 0-28.74 12.249-28.74 12.249 10.728-23.883 32.508-22.145 32.508-22.145h51.923C173.093 438.453 138.404 414 98 414c-54.123 0-98 43.876-98 98s43.877 98 98 98c54.124 0 98-43.876 98-98 0-2.536-.096-5.05-.285-7.538h-63.32zm-34.34-73.168c25.694 0 48.583 11.992 63.376 30.678h-29.37c-12.57 0-24.267 9.54-28.758 13.686H61.218v73.154h73.206v-32.564h44.282c-2.21 42.597-37.473 76.458-80.65 76.458-44.604 0-80.762-36.133-80.762-80.706s36.158-80.706 80.762-80.706zm26.463 85.318v21.906h-20.753c5.042-14.286 13.866-19.825 20.753-21.906zm-31.13-31.13v53.036H71.482v-53.036h21.906z"/>
</svg>