<svg xmlns="http://www.w3.org/2000/svg" viewBox="0 0 1024 1024" width="60" height="60">
  <path fill="#FFF" d="M224 0h576c123.6 0 224 100.4 224 224v576c0 123.6-100.4 224-224 224H224C100.4 1024 0 923.6 0 800V224C0 100.4 100.4 0 224 0z"/>
  <path fill="#F2931E" d="M523.2 335.6c0-81.6 66-147.6 147.6-147.6s147.6 66 147.6 147.6-66 147.6-147.6 147.6-147.6-66-147.6-147.6zm222 7.2c6.4-10.8-.4-19.2-.4-19.2s-9.6-16.8-13.6-23.6c-6.4-11.2 3.6-18.4 3.6-18.4h-28c-8.4 0-14.8 8.8-10 16.8 2 4 37.2 64.4 37.2 64.4s7.2-13.6 11.2-20zm-49.2 0c6.4-10.8-.4-19.2-.4-19.2S686 306.8 682 300c-6.4-11.2 3.6-18.4 3.6-18.4h-28c-8.4 0-14.8 8.8-10 16.8 2 4 37.2 64.4 37.2 64.4s7.2-13.6 11.2-20zm-88.8-37.2c-3.2 1.6-7.6.4-9.2-2.8-1.6-3.2-.4-7.2 2.8-9.2 3.2-1.6 7.2-.4 9.2 2.8 1.6 3.2.4 7.6-2.8 9.2zm79.2 92S631.6 304 624 290.4c-5.6-9.2-14.8-9.2-14.8-9.2H564c-1.2 0-2.8 2-.8 2.8 12.8 4.4 16.8 13.6 24 26 3.6 6 55.6 95.6 55.6 95.6S656 432 677.2 432c12 0 25.2-8 28.4-24.8-12.8 2-19.2-9.6-19.2-9.6zm69.2-116.4c-8.4 0-14.8 8.8-10 16.8.8 1.6 6.4 10.8 12.8 21.6l22.4-38.4h-25.2z"/>
  <path fill="#92190C" d="M654 509.2 526 636.8v210c180.8-7.2 325.2-155.6 325.2-337.6H654z"/>
  <path fill="#A7241D" d="M172 510.8c0 182.8 144.4 331.6 325.2 338.8V638.4l-128-128 128-128V172C316.4 179.2 172 328 172 510.8"/>
  <path fill="#92190C" d="M320.4 373.6c0 51.2 17.6 100 48.8 136l128-128V172c-99.6 13.2-176.8 98.4-176.8 201.6"/>
  <path fill="#A7241D" d="M523.2 637.2v210C623.2 834 700 748.8 700 645.6c0-51.2-17.6-100-48.8-136l-128 127.6z"/>
</svg>