<svg xmlns="http://www.w3.org/2000/svg" viewBox="0 0 1024 1024" width="60" height="60">
  <path fill="#FFF" d="M224 0h576q224 0 224 224v576q0 224-224 224H224Q0 1024 0 800V224Q0 0 224 0Z"/>
  <path fill="#D70110" d="M474.816 813.232a288.4 288.4 0 0 0 36.196 2.272c140.72 0 254.8-101.348 254.8-226.36 0-66.228-32.02-125.808-83.056-167.2V219.808C783.984 278.632 852 387.832 852 512.844 852 700.16 699.336 852 511.012 852c-45.72 0-89.328-8.968-129.168-25.204V361.952c0-50.096 31.24-86.656 92.968-91.672v177.968h74.372V210.772a288.032 288.032 0 0 0-33.056-2.252l-3.14-.02c-140.724 0-254.8 101.348-254.8 226.36 0 66.228 32.02 125.812 83.052 167.2v202.128C240.012 745.372 172 636.172 172 511.156 172 323.848 324.664 172 512.988 172c45.72 0 89.32 8.972 129.168 25.208v462.184c0 50.096-31.24 86.656-92.968 91.672l-.004-177.972h-74.372z"/>
</svg>